<svg xmlns="http://www.w3.org/2000/svg" width="177.397" height="30" viewBox="0 0 177.397 30"><title>LENDOPOLIS</title><ellipse fill="#FFF" cx="15.401" cy="14.967" rx="14.527" ry="14.23"/><path fill="#0F1F29" d="M15.292 30c8.438 0 15.319-6.74 15.319-15.007 0-3.558-1.311-7.035-3.659-9.736-1.938-2.221-4.451-3.825-7.291-4.654-2.812-.803-5.898-.803-8.71 0-2.841.829-5.353 2.433-7.292 4.654C1.284 7.958 0 11.436 0 14.993 0 23.26 6.854 30 15.292 30zm-12.67-9.202c-.847-1.765-1.311-3.718-1.311-5.805 0-3.183 1.146-6.286 3.222-8.746.054-.054.082-.107.136-.161 1.748-2.006 4.014-3.45 6.554-4.227.027 0 .055-.026.109-.026 2.566-.749 5.379-.749 7.946 0 .027 0 .055.026.109.026 2.54.749 4.833 2.221 6.554 4.227.055.054.082.107.136.161 2.076 2.46 3.223 5.537 3.223 8.746 0 2.06-.464 4.04-1.311 5.805-.054.081-.082.161-.136.269h-4.697v5.296c-.082.054-.164.107-.273.16v-10.7h-2.84v12.092c-.082.026-.164.054-.273.08V12.346h-2.84v16.236c-.082 0-.164.027-.273.027V8.922h-2.758v19.714c-.082 0-.164-.026-.273-.026V12.346h-2.812v15.622c-.082-.027-.164-.054-.273-.081V15.796h-2.84v10.7c-.082-.054-.191-.107-.273-.161v-5.296H2.73c-.027-.08-.054-.16-.108-.241z"/><path fill="#CA9836" d="M7.455 15.529h2.922L4.533 6.247c-2.075 2.46-3.222 5.537-3.222 8.746 0 2.06.464 4.04 1.311 5.805h4.833v-5.269zm12.752 0h2.922v5.242h4.833c.847-1.765 1.311-3.719 1.311-5.805 0-3.183-1.147-6.286-3.223-8.747l-5.843 9.31zm-6.554-3.425V8.653h3.277v3.451h1.065L19.36 1.887c-.027 0-.055-.027-.109-.027-2.567-.749-5.379-.749-7.946 0-.027 0-.055.027-.109.027l1.365 10.218h1.092z"/><path fill="#FFF" d="M90.225 19.178c.002 0 .002-.003.002-.003.005-.004.008-.007.012-.011l-.012.011s0 .003-.002.003m-.093.084l.003-.004v.002l-.003.002"/><path fill="#000102" d="M171.033 17.091l-.005.001c.017.109.041.217.069.323-.026-.109-.048-.219-.064-.324"/><path fill="#0F1F29" d="M176.025 16.98c0-1.41-1.126-1.889-2.27-2.401l-.751-.318c-1.437-.64-2.677-1.359-2.677-3.087 0-.885.363-1.616.936-2.146-.005.005-.01.008-.016.012-.004.004-.008.008-.012.011-.004.006-.01.01-.016.014-.003.004-.006.007-.01.011-.006.004-.012.009-.016.014-.004.004-.01.007-.014.012-.004.004-.008.009-.012.011l-.014.012c-.004.005-.008.009-.012.014-.006.003-.012.007-.016.012-.004.004-.008.008-.012.011-.005.005-.01.008-.014.014-.004.004-.009.006-.014.011-.004.005-.009.008-.013.013-.006.004-.01.008-.014.011-.003.004-.009.008-.012.013-.006.004-.011.008-.015.013-.004.004-.01.009-.013.012-.006.005-.009.008-.014.012-.004.004-.009.008-.015.013-.004.003-.008.007-.012.012-.005.004-.008.008-.014.012l-.014.013c-.005.004-.01.01-.013.013-.004.004-.009.008-.014.011-.003.004-.009.009-.013.013-.006.004-.01.007-.014.011-.006.004-.008.009-.012.012-.006.005-.011.01-.015.014-.004.005-.009.009-.013.014-.006.003-.009.006-.014.009l-.014.014c-.004.003-.01.009-.015.013-.003.004-.007.006-.011.011-.004.004-.01.008-.015.012-.003.004-.008.008-.013.012-.004.005-.01.009-.014.011-.004.006-.009.01-.014.015-.004.003-.008.007-.012.011-.006.004-.01.008-.016.013-.004.004-.008.009-.014.012-.002.004-.008.008-.012.013l-.014.011c-.004.005-.009.007-.012.012-.006.004-.01.009-.015.013l-.013.012-.014.012-.013.012c-.004.006-.009.01-.015.014-.004.003-.008.007-.011.009-.005.005-.012.01-.016.016-.005.003-.008.007-.012.011-.005.003-.009.008-.015.012l-.013.012c-.005.004-.009.007-.013.011-.005.006-.01.009-.014.013-.003.006-.008.008-.014.012l-.012.013c-.006.004-.012.008-.016.012-.003.004-.007.008-.014.013-.003.004-.008.007-.012.012-.004.003-.009.009-.013.011-.003.004-.009.008-.015.013-.003.004-.008.009-.014.014-.003.002-.008.007-.012.011-.005.005-.01.009-.014.013-.004.003-.009.007-.014.011-.002.004-.008.009-.013.012-.005.007-.009.009-.015.014-.004.003-.01.007-.013.012-.004.004-.009.007-.012.011-.005.005-.01.009-.015.013-.004.005-.009.008-.014.012-.004.004-.008.008-.014.012-.005.004-.006.008-.012.013-.004.003-.01.008-.013.012l-.015.013c-.004.003-.01.007-.012.011-.006.005-.011.008-.016.014-.002.003-.006.008-.012.01-.004.005-.008.01-.014.013-.004.005-.01.008-.014.013-.002.003-.008.008-.012.012-.006.005-.01.009-.014.013-.005.005-.009.008-.014.011-.004.004-.008.008-.012.013-.006.004-.009.008-.015.011-.003.006-.009.009-.013.015-.006.003-.01.008-.014.011-.006.003-.008.007-.014.011-.004.006-.01.009-.014.014l-.012.012c-.004.005-.01.009-.015.012-.004.004-.009.009-.013.012-.005.004-.01.008-.014.013-.004.004-.01.009-.014.012-.004.005-.009.009-.012.012-.006.005-.01.009-.014.013-.006.005-.01.01-.016.013-.002.003-.008.009-.012.012-.005.004-.009.009-.013.012-.573.528-.931 1.262-.931 2.146 0 1.728 1.238 2.447 2.676 3.086l.752.32c1.143.513 2.27.991 2.27 2.398 0 .347-.078.667-.217.955.917-.377 1.585-1.184 1.585-2.194"/><path fill="#0F1F29" d="M169.691 17.461l-1.337 1.209c.392 1.871 1.862 3.12 3.838 3.12 1.014 0 1.938-.366 2.628-.973.008-.009.019-.017.027-.025l.013-.012c.003-.004.009-.007.013-.012.005-.004.01-.008.014-.012.008-.009.018-.017.027-.025.004-.004.008-.007.012-.011.004-.005.01-.009.014-.012.011-.009.018-.017.027-.026.004-.003.009-.006.01-.01.006-.004.012-.009.016-.014.006-.005.01-.006.014-.011s.008-.008.014-.012c.004-.005.008-.009.012-.013.004-.003.01-.009.015-.012.005-.004.009-.009.014-.013.001-.001.003-.003.006-.005.002-.002.003-.003.005-.007.006-.003.01-.008.015-.011.004-.005.009-.009.013-.013.004-.005.01-.008.014-.012.008-.008.018-.017.026-.024.005-.003.011-.009.014-.014.005-.002.009-.007.015-.01.002-.005.007-.008.012-.014.005-.003.008-.007.013-.011.004-.004.007-.009.013-.012s.01-.009.015-.013.009-.007.013-.012c.004-.004.009-.009.014-.012.004-.005.01-.011.014-.014.004-.002.008-.007.012-.009.004-.005.01-.008.014-.013s.009-.01.014-.013c.005-.004.009-.01.015-.014.004-.003.007-.006.012-.011.004-.005.009-.007.013-.012s.009-.008.013-.012c.005-.005.009-.008.015-.014.004-.002.008-.007.014-.011.004-.004.008-.01.014-.012.008-.008.016-.019.025-.024.004-.005.008-.007.013-.011.004-.003.009-.01.013-.013.005-.005.01-.008.014-.012.004-.005.008-.01.013-.012.005-.003.01-.009.014-.012.005-.005.009-.009.014-.013.004-.004.007-.009.013-.012.009-.008.019-.017.027-.025.01-.008.02-.015.025-.024.006-.003.01-.007.015-.011.003-.002.007-.008.013-.011.004-.005.008-.008.013-.013.005-.003.009-.009.013-.012.01-.009.02-.017.029-.024.004-.006.008-.008.012-.014.006-.003.009-.007.013-.011.005-.003.009-.006.015-.011.004-.006.008-.008.012-.013.01-.007.019-.016.027-.025.004-.003.01-.006.014-.011.004-.003.007-.007.012-.011s.01-.008.016-.015c.004-.001.008-.007.012-.011.01-.007.018-.016.026-.023l.013-.013c.006-.004.01-.008.014-.012.005-.004.01-.006.014-.01.006-.007.009-.01.013-.014.007-.004.01-.008.015-.013.004-.004.009-.008.013-.013.005-.001.009-.006.014-.01.003-.004.008-.008.013-.013.008-.007.017-.017.027-.024.002-.003.008-.009.012-.013.006-.003.009-.007.013-.011.006-.004.011-.009.017-.013.006-.008.016-.016.025-.023.004-.004.009-.008.012-.012.004-.004.009-.009.014-.012.005-.004.009-.009.015-.012.003-.004.008-.009.013-.013.004-.004.009-.009.014-.013.004-.004.008-.009.012-.013.005-.003.01-.008.012-.01.012-.009.02-.017.027-.024.006-.004.011-.011.016-.014.016-.014.025-.03.041-.045-.691.621-1.621.995-2.648.995-1.975 0-3.442-1.246-3.836-3.117m6.155-6.785c-.49-.833-1.078-1.312-2.122-1.312-.889 0-1.671.511-1.938 1.292.192-.052.394-.079.601-.079 1.045 0 1.633.477 2.123 1.311l1.094-.689 1.34-1.21c-.057-.103-.119-.194-.182-.28.061.092.125.182.18.28l-1.096.687zm-130.818 9.71l-.002-.058v.058h-4.769V8.312L38.94 9.521v12.062h4.768m7.589-1.212V8.312l-1.336 1.209v12.061h6.385l1.338-1.21-.002-.061v.061"/><path fill="#0F1F29" d="M52.667 14.387v1.211h3.531l1.339-1.211-.004-.066v.067m-4.866-4.83v1.209h3.678l1.338-1.209-.002-.06v.06m7.314 10.813V7.801L63.66 9.01v12.571h1.373l1.338-1.21-.003-.09v.09m8.23-12.06l-1.337 1.21v6.759l1.337 1.371"/><path fill="#000102" d="M64.998 7.799l-.002.001.046.047"/><path fill="#0F1F29" d="M75.969 20.869v.046l-9.602-9.838v2.579l8.265 8.469 1.339-1.21"/><path fill="#000102" d="M90.135 19.258c.004-.003.008-.007.012-.011-.005.004-.008.008-.012.011"/><path fill="#0F1F29" d="M85.716 20.371H83.43V8.312l-1.336 1.209v12.061h2.286c1.925 0 3.396-.24 4.866-1.519.004-.005.008-.009.012-.013 0 0 .001 0 .001-.001.002-.002.005-.006.008-.006.001-.003.003-.004.004-.006.004-.003.007-.006.01-.009.001 0 .002-.002.002-.003.004-.004.008-.006.011-.01 0-.002.002-.002.002-.002.003-.005.007-.008.011-.011.004 0 .005-.002.005-.002.003-.003.007-.005.009-.008l.004-.002c.004-.005.007-.006.01-.012l.002-.002c.005-.003.007-.004.009-.007.002-.001.003-.004.005-.005.002-.002.006-.006.011-.01.001 0 .002 0 .002-.003.005-.002.007-.005.01-.009.001 0 .003-.001.004-.002.003-.001.007-.006.01-.01 0-.001.001-.002.003-.002.003-.002.005-.006.009-.008.001-.002.003-.003.003-.004.005-.004.009-.008.012-.012h.003c.001-.003.005-.007.007-.008.003 0 .004-.003.004-.004.004-.004.006-.007.011-.011 0 0 .002-.001.002-.003.003-.001.006-.005.009-.008.001-.001.004-.002.005-.004.004-.003.008-.008.012-.012.004-.002.007-.005.01-.008.001-.001.002-.002.002-.003.006-.004.008-.007.011-.01l.003-.003c.004-.002.006-.006.009-.008 0-.002.004-.003.005-.005.003-.003.005-.007.01-.01.001 0 .002 0 .002-.002.004-.002.007-.005.01-.008.001-.001.002-.003.004-.003.003-.004.008-.009.013-.014.003-.002.006-.004.01-.007.001-.001.002-.003.004-.004.004-.002.007-.007.011-.009 0-.002.001-.004.001-.004.003-.001.005-.005.009-.007.001-.002.002-.002.005-.004.003-.003.006-.008.01-.011.001-.001.002-.001.002-.002.004-.003.007-.006.012-.01l.002-.002c.004-.005.007-.008.012-.012h.001c.003-.002.006-.006.009-.01l.005-.002c.003-.004.007-.007.009-.011.002-.001.002-.002.004-.002.002-.004.005-.006.008-.009.002-.001.004-.003.005-.005.003-.002.006-.005.01-.009.001 0 .002-.001.003-.001.003-.003.006-.007.009-.009l.003-.004c.005-.003.008-.008.014-.012l.009-.009.003-.005c.004-.004.006-.006.01-.008l.004-.003c.003-.003.006-.007.009-.011.003 0 .003 0 .004-.001.003-.004.008-.008.011-.012.001 0 .001 0 .002-.001.004-.004.007-.006.011-.011l.003-.003c.002-.001.006-.006.008-.006.002-.001.003-.003.004-.004.003-.002.007-.005.01-.009l.005-.004c.002-.003.006-.006.01-.01 0-.001.001-.001.002-.002.003-.003.007-.007.01-.009.001-.002.002-.002.003-.004l.011-.01h.002c.004-.003.007-.009.01-.011 0-.002.002-.002.002-.002.003-.005.008-.009.012-.011l.002-.003c.003-.002.006-.006.008-.008.002-.001.003-.003.006-.004.002-.003.006-.005.008-.007.001-.002.003-.004.005-.004.005-.003.007-.006.011-.01 0-.001 0-.002.002-.003.003-.001.006-.006.009-.01l.003-.002c.005-.003.008-.008.011-.01.001 0 .002 0 .003-.003.004-.003.007-.004.01-.008.001-.002.001-.002.003-.003.003-.004.006-.007.011-.011l.002-.002c.004-.003.005-.006.01-.008.001-.001.002-.002.004-.005.003-.002.007-.007.01-.01.001 0 .002 0 .002-.002.004-.003.008-.008.012-.01 0-.001 0-.002.002-.002.004-.003.008-.005.01-.009.002-.001.002-.002.003-.002.003-.005.007-.008.011-.011 0 0 .003-.002.003-.003.003-.003.006-.005.009-.007 0-.002.004-.004.004-.006.004-.002.006-.005.01-.007.002-.001.002-.002.004-.004.004-.002.008-.006.01-.009s.002-.003.004-.003c.003-.005.008-.007.01-.011.002-.001.002-.001.003-.003.003-.002.006-.005.011-.007 0-.002.001-.004.003-.004.005-.003.008-.009.013-.012.003-.003.004-.005.008-.008.002-.002.004-.002.006-.005.004-.003.007-.007.01-.009.002-.001.002-.002.002-.002v-.001c.005-.004.008-.008.014-.012.004-.003.008-.006.011-.01.001 0 .001-.002.003-.002.003-.003.006-.006.009-.008.001-.003.004-.003.005-.004.004-.005.008-.006.01-.011.002-.001.002-.001.003-.003.004-.002.007-.006.01-.007l.004-.004c.004-.003.007-.007.013-.011l.001-.001c.003-.004.007-.006.011-.01.002 0 .002-.002.002-.002l.011-.011c.001-.001.003-.001.003-.002.004-.002.006-.005.01-.008.001-.002.002-.003.004-.004.004-.004.006-.007.011-.01 0 0 .001 0 .004-.002.002-.003.005-.006.008-.009.002-.002.003-.003.005-.004l.012-.011h.002l.01-.011c.002 0 .002-.001.003-.002.004-.002.007-.006.01-.009.001-.003.003-.003.003-.003.004-.001.007-.007.01-.008l.004-.004c.004-.004.008-.006.01-.01.002-.002.002-.002.004-.003.003-.003.006-.007.01-.008l.001-.002.013-.011c.001-.001.003-.001.003-.004.003-.002.007-.006.011-.009.001 0 .002-.002.002-.002.004-.004.006-.007.012-.01 0-.002.001-.002.001-.003.005-.003.007-.006.011-.007.002-.002.002-.004.002-.005l.014-.012s0-.001.002-.001c.002-.003.005-.006.008-.007.002-.003.002-.004.005-.005.003-.003.007-.008.011-.01 0-.001.001-.003.002-.003.004-.002.007-.005.012-.009 0 0 .001 0 .002-.001.004-.004.008-.008.01-.011.002-.001.002-.001.003-.003.005-.003.007-.006.009-.009.002-.001.004-.001.004-.004.006-.003.01-.007.013-.01l.003-.001c.003-.004.005-.006.008-.008.001-.002.002-.004.004-.004.005-.004.007-.007.011-.011.001 0 .001-.001.003-.003l.011-.009c.001-.001.002-.002.004-.002.004-.004.007-.009.011-.012l.002-.001c.003-.003.006-.005.008-.008l.004-.002c.004-.005.008-.008.012-.011.002-.001.004-.002.004-.003.12-.105.23-.216.336-.328-.109.111-.219.223-.34.328-1.47 1.279-2.94 1.52-4.866 1.52"/><path fill="#0F1F29" d="M89.619 10.725c-1.128-.977-2.368-1.167-3.821-1.167h-.997v1.268l.004-.054c1.306.032 2.441.265 3.478 1.164 1.061.911 1.6 2.239 1.6 3.613 0 1.05-.32 2.048-.94 2.876.252-.152.5-.328.741-.55 1.012-.928 1.535-2.192 1.535-3.535 0-1.376-.538-2.704-1.6-3.615m15.576-1.376c-1.653 0-3.096.776-4.01 1.966.771-.478 1.686-.753 2.674-.753 2.826 0 5.047 2.254 5.047 4.988 0 1.12-.385 2.165-1.029 3.005 1.42-.891 2.365-2.457 2.365-4.215 0-2.736-2.221-4.991-5.047-4.991"/><path fill="#0F1F29" d="M98.777 14.355c0-1.887.871-3.572 2.229-4.72-.039.033-.08.063-.119.098l-.014.014-.012.012c-.006.004-.01.01-.016.014-.002.002-.008.006-.012.009-.004.004-.01.009-.014.015-.004.003-.008.007-.012.01-.006.005-.01.009-.014.014-.004.003-.01.007-.016.011-.004.005-.007.01-.012.013-.004.004-.008.008-.012.011-.006.005-.011.01-.018.015-.002.003-.006.005-.009.01-.005.003-.011.008-.016.014-.005.004-.009.007-.013.012-.004.004-.008.007-.014.01-.004.004-.008.01-.012.013-.006.005-.011.01-.016.014-.005.003-.008.008-.011.011l-.016.013c-.004.004-.007.008-.012.011s-.008.008-.013.012c-.004.005-.011.01-.016.014-.004.005-.008.008-.014.012-.002.004-.006.006-.012.01-.004.006-.009.01-.014.015l-.014.012-.012.012c-.004.002-.01.008-.014.011-.004.005-.01.009-.013.014-.006.003-.01.007-.013.01-.006.004-.01.009-.015.013s-.009.009-.014.013l-.013.012c-.003.005-.008.007-.014.013-.004.003-.008.006-.014.012-.004.004-.009.007-.012.011-.006.005-.01.009-.014.014-.004.004-.01.007-.013.011-.006.004-.009.007-.015.013-.004.004-.008.007-.014.012-.004.005-.008.008-.012.012-.006.004-.01.009-.015.013-.005.003-.009.008-.012.012-.006.003-.01.008-.014.012-.006.004-.009.009-.013.012-.005.004-.009.008-.014.012-.004.004-.009.009-.014.013-.004.004-.01.008-.013.012-.005.004-.009.008-.013.012-.006.004-.01.008-.014.012-.005.004-.01.01-.014.012-.004.006-.01.009-.014.013s-.008.008-.014.012c-.004.005-.008.009-.012.013-.004.002-.009.006-.014.01-.006.005-.008.008-.014.014-.006.004-.008.008-.014.014-.004.003-.008.007-.013.01s-.011.01-.015.013l-.012.012c-.006.005-.008.009-.014.012-.004.004-.008.009-.013.013-.005.001-.01.008-.015.012-.004.004-.008.009-.014.011-.004.005-.007.011-.012.014-.006.003-.01.008-.014.011-.006.004-.01.009-.014.013l-.013.012c-.005.005-.009.008-.014.012-.004.006-.009.008-.013.012-.005.003-.01.008-.015.013-.005.003-.009.009-.013.013-.005.004-.01.007-.014.011-.004.005-.008.008-.014.011l-.012.014c-.004.004-.009.007-.014.012-.004.004-.01.009-.014.013-.005.003-.008.007-.015.012l-.011.012c-.006.004-.01.008-.015.014-.003.002-.008.007-.013.01-.006.004-.01.008-.014.012-.004.005-.01.01-.016.014-.002.004-.008.009-.012.012-.004.004-.008.008-.012.011-.006.005-.01.007-.013.014-.005.004-.011.007-.014.011-.006.004-.009.009-.015.013-.005.004-.01.009-.014.013-.004.002-.008.007-.012.009-.004.006-.01.01-.014.014-.006.005-.01.01-.014.013l-.012.011c-.005.005-.01.009-.014.013-.006.005-.01.009-.014.012-.004.004-.009.008-.013.011-.005.006-.011.01-.014.014-.005.004-.009.008-.012.011-.005.005-.011.009-.015.013-.006.004-.01.009-.016.013-1.296 1.144-2.117 2.796-2.117 4.632 0 3.473 2.906 6.224 6.417 6.224 1.652 0 3.17-.609 4.313-1.615l.012-.012c.006-.004.01-.007.013-.012.007-.004.011-.008.015-.013.004-.004.008-.006.014-.011.005-.004.01-.008.014-.012s.008-.009.013-.012l.014-.013c.004-.005.009-.007.012-.011.006-.006.009-.01.015-.014.005-.003.008-.009.013-.012.005-.005.01-.01.015-.012.004-.004.008-.011.013-.012l.013-.012c.004-.005.008-.01.014-.014.004-.004.007-.008.014-.011.003-.004.008-.008.012-.013.006-.005.01-.009.014-.011.004-.006.008-.009.014-.014.006-.003.008-.008.013-.011.005-.004.009-.008.014-.012.005-.005.007-.008.012-.013.007-.004.011-.009.017-.014.002-.003.006-.006.012-.011.004-.004.01-.008.012-.014.006-.002.01-.005.013-.009.007-.006.01-.01.015-.014.006-.005.01-.007.015-.012.005-.004.009-.008.012-.012.005-.005.01-.008.013-.012.006-.004.01-.008.014-.013.005-.004.01-.009.014-.012.006-.004.01-.009.014-.013.004-.003.01-.008.014-.012s.008-.009.014-.013c.004-.004.008-.006.012-.011.006-.004.009-.008.014-.012.004-.005.009-.009.013-.012.005-.005.01-.009.015-.013.004-.004.008-.009.015-.012.003-.004.007-.008.011-.012s.009-.007.012-.012l.017-.015c.004-.003.008-.007.011-.01.006-.005.01-.008.016-.012.003-.004.007-.008.012-.014.004-.003.01-.009.015-.012.003-.003.007-.008.013-.01.003-.004.01-.009.014-.014.005-.003.009-.009.014-.014.002-.004.008-.006.011-.01l.015-.013.014-.012c.004-.004.008-.008.012-.011.005-.005.009-.01.016-.013.002-.005.008-.007.012-.012s.01-.009.014-.014c.004-.003.008-.007.013-.011l.015-.012c.003-.004.008-.009.012-.013.006-.004.01-.006.013-.011l.015-.013c.004-.003.009-.009.014-.012.005-.004.008-.009.013-.012.005-.004.009-.009.013-.012.004-.006.008-.009.014-.014l.013-.009.013-.014c.006-.005.01-.009.016-.014l.011-.011c.005-.003.01-.008.015-.013l.014-.012c.004-.004.008-.009.012-.011.004-.006.01-.01.014-.014.006-.005.01-.008.013-.01.005-.005.009-.01.013-.014.006-.004.008-.008.014-.012.004-.005.008-.009.014-.013.005-.004.01-.009.014-.012.004-.004.008-.008.014-.012.005-.004.008-.009.012-.012.006-.004.011-.009.014-.013.006-.004.01-.007.013-.012.005-.003.009-.007.013-.011.006-.004.01-.01.016-.014.004-.003.009-.007.013-.011.004-.005.009-.01.013-.013.004-.002.01-.008.012-.011.008-.005.01-.01.016-.016.004-.002.01-.006.012-.011.006-.003.01-.006.014-.01.006-.005.01-.008.014-.014.004-.004.01-.008.014-.013.004-.003.01-.007.012-.011.006-.004.01-.007.015-.012.004-.004.007-.008.013-.012.004-.004.008-.01.014-.012.004-.005.01-.01.016-.013.003-.004.006-.009.012-.011.004-.005.008-.01.013-.013l.013-.014c.062-.053.117-.107.174-.163-1.16 1.095-2.744 1.767-4.477 1.767-3.509-.001-6.417-2.753-6.416-6.223"/><path fill="#000102" d="M118.374 8.309"/><path fill="#0F1F29" d="M122.131 12.879c0 .306-.041.566-.115.797.855-.254 1.451-.836 1.451-2.008 0-1.966-1.617-2.11-3.217-2.11h-.506v1.267l.002-.034c1.285.083 2.385.465 2.385 2.088m-3.76 7.492V8.312l-1.336 1.209v12.061h1.371l1.34-1.21-.002-.096v.096m3.563-5.749c.003-.006.007-.01.012-.013.004-.005.01-.009.014-.013.004-.002.01-.007.012-.011.006-.005.01-.009.015-.014.004-.002.007-.004.011-.008.004-.005.012-.011.017-.015l.017-.017c.004-.003.006-.005.008-.009l.013-.008c.006-.006.013-.013.021-.02l.009-.007c.003-.005.009-.01.013-.014.004-.003.01-.008.014-.012.01-.008.021-.019.031-.029.004-.001.005-.003.008-.006.005-.004.01-.01.014-.013l.014-.012c.004-.005.01-.008.014-.011l.013-.014c.005-.003.009-.008.013-.011.005-.004.01-.009.014-.013.004-.005.009-.008.014-.013l.012-.013c.006-.003.012-.007.014-.012.004-.002.008-.005.01-.007.006-.006.013-.011.018-.017.006-.004.012-.011.018-.016l.01-.009c.004-.001.008-.006.014-.012l.012-.012c.005-.003.01-.009.014-.012.006-.005.008-.008.014-.012.002-.003.006-.006.01-.008.006-.006.014-.015.021-.021.003-.001.005-.003.007-.006l.02-.017c.021-.019.036-.043.057-.062-.064.062-.127.122-.194.179-.833.671-1.895.801-2.922.801h-.997v1.198c.889-.04 1.871-.216 2.584-.789.047-.038.094-.08.14-.121.007-.007.014-.014.021-.02.001-.002.003-.003.004-.005.007-.006.016-.014.022-.019.002-.002.003-.004.004-.005.008-.007.014-.012.021-.02.002-.002.004-.004.006-.005.008-.007.014-.014.021-.021.003-.001.006-.006.009-.007.005-.004.009-.009.013-.014.004-.003.01-.006.014-.011l.012-.011c.006-.005.012-.01.014-.013.004-.004.007-.005.011-.008.007-.008.015-.015.021-.02l.01-.01c.004-.004.008-.007.012-.011.004-.003.01-.007.012-.011.005-.003.012-.01.018-.014.005-.006.012-.011.015-.016.005-.003.009-.006.011-.01.004-.002.006-.004.01-.008.008-.006.014-.012.021-.02l.006-.002c.005-.007.012-.012.018-.017.004-.006.011-.013.016-.017l.009-.008c.004-.005.009-.007.015-.012.002-.005.008-.009.014-.014l.011-.011.015-.012.012-.012c.006-.005.009-.008.014-.011.004-.005.009-.011.014-.015.004-.003.006-.004.008-.008.009-.005.016-.014.023-.019l.008-.008c.004-.003.008-.007.011-.009.007-.008.015-.013.021-.021.004-.002.006-.005.01-.008.003-.003.008-.008.014-.011.003-.004.006-.006.009-.009.005-.005.011-.011.017-.015.005-.006.01-.01.016-.014.006-.006.01-.011.016-.016.002-.004.006-.006.01-.009s.008-.007.012-.011l.01-.009c.006-.005.012-.01.018-.016.006-.007.012-.012.018-.017.002-.003.006-.006.008-.009.006-.003.01-.007.014-.012l.014-.012c.004-.002.006-.006.01-.008.005-.005.012-.011.018-.016s.012-.011.018-.016c.002-.002.005-.007.009-.009l.009-.009c.008-.006.016-.012.021-.019.004-.004.006-.006.01-.009.002-.002.006-.005.008-.008.008-.007.016-.013.023-.021.002-.002.006-.005.008-.007-.02.022-.015.018-.01.016m7.556-.268c0-1.854.84-3.511 2.156-4.656-.016.012-.032.022-.047.036-.006.003-.01.007-.016.013-.004.004-.008.007-.012.012-.006.003-.01.009-.014.011-.004.003-.008.008-.014.011-.006.004-.009.009-.014.015-.004.003-.009.007-.012.01-.004.004-.01.009-.014.012-.005.003-.009.009-.014.013-.005.005-.01.01-.014.013l-.012.011-.014.014c-.006.003-.009.008-.013.011-.007.003-.009.008-.015.013-.004.005-.008.008-.013.013-.005.003-.009.007-.013.01-.006.005-.01.009-.014.012-.006.006-.009.01-.014.015l-.013.01c-.005.005-.01.009-.015.013s-.009.008-.012.012c-.005.004-.008.008-.014.012-.004.004-.01.009-.014.013l-.013.013c-.005.003-.009.005-.015.011-.004.005-.008.008-.014.014l-.012.011c-.004.004-.008.008-.012.011-.006.003-.01.008-.016.013l-.014.013c-.004.004-.008.007-.013.011s-.009.009-.013.013c-.006.003-.01.008-.015.013-.004.005-.008.007-.011.01-.005.006-.01.009-.014.014-.005.003-.01.007-.015.012l-.013.012c-.004.005-.01.008-.015.014-.004.003-.009.008-.011.012-.006.003-.01.006-.015.011s-.011.007-.014.012c-.005.004-.009.008-.012.012-.006.004-.01.009-.015.013-.004.003-.01.006-.013.012-.005.003-.009.008-.015.012-.004.004-.008.009-.012.012l-.014.012c-.004.005-.008.009-.015.013-.003.004-.007.007-.011.012-.006.004-.01.008-.014.013-.006.003-.008.007-.014.011l-.014.012c-.004.006-.01.009-.013.013-.006.004-.009.009-.014.012l-.013.012c-.004.002-.01.008-.014.011-.004.005-.009.008-.012.014-.006.004-.01.008-.016.014l-.014.01c-.003.002-.008.01-.014.012-.002.005-.006.009-.012.014-.004.004-.008.008-.013.012-.005.003-.009.008-.013.012-.006.001-.01.007-.016.012-.003.004-.008.009-.012.011-.004.005-.01.011-.014.014-.003.003-.008.008-.013.011-.005.004-.011.009-.013.013-.006.003-.01.008-.016.012-.004.005-.008.008-.014.012-.003.004-.007.008-.012.012-.004.003-.008.01-.014.014-.005.002-.008.007-.012.012-.006.004-.01.007-.015.011-.005.005-.008.008-.014.011l-.012.014c-.005.004-.009.007-.014.012-.005.004-.009.009-.015.012-.003.004-.009.008-.012.013-.006.004-.008.007-.014.01-.005.006-.01.01-.014.015-.004.003-.008.007-.014.011-.004.004-.008.008-.013.012-.005.005-.009.008-.013.013l-.014.013c-.004.003-.009.008-.012.011-.005.004-.01.007-.016.013-.004.004-.008.007-.012.012s-.01.009-.014.012c-.006.005-.009.01-.013.012-.004.004-.009.009-.013.011-.006.005-.009.01-.014.014-.006.004-.01.009-.014.013-.005.003-.008.006-.013.011-.005.004-.009.008-.015.012-.003.004-.008.009-.013.013s-.007.007-.013.01c-.004.006-.01.01-.014.015-.004.002-.008.006-.012.011-.006.004-.01.008-.014.013-.006.004-.011.009-.016.012-1.296 1.144-2.117 2.796-2.117 4.632 0 3.473 2.904 6.224 6.416 6.224 1.651 0 3.169-.61 4.313-1.614l.013-.013c.006-.004.01-.009.015-.012.005-.004.009-.008.015-.013.002-.004.006-.006.012-.011.002-.004.008-.008.013-.013.004-.003.007-.008.013-.011.005-.004.01-.009.015-.013s.008-.008.013-.013c.006-.003.009-.008.014-.012.004-.003.008-.009.014-.012.002-.005.008-.008.014-.012.004-.005.009-.011.013-.013.005-.004.009-.008.013-.011.004-.006.009-.01.014-.014.004-.004.008-.007.013-.011.003-.004.009-.008.015-.013.004-.005.008-.01.012-.012.005-.005.01-.009.014-.014.006-.002.008-.007.014-.011.004-.003.009-.007.014-.012.002-.004.008-.007.012-.012.005-.004.01-.01.016-.014.004-.004.008-.007.012-.01.006-.005.009-.01.014-.015.004-.003.008-.006.013-.01.005-.005.009-.009.013-.014.005-.003.012-.007.016-.013.004-.003.008-.007.012-.011.004-.003.008-.007.012-.012.005-.003.01-.008.014-.013.004-.003.01-.008.014-.01.004-.006.01-.01.014-.014.005-.004.009-.009.014-.012.005-.004.008-.009.014-.013.004-.005.008-.007.012-.012l.014-.012c.006-.004.01-.008.014-.014.004-.003.009-.006.015-.011.003-.004.008-.008.013-.012.004-.003.008-.007.014-.011.002-.005.007-.008.01-.013l.016-.014c.006-.003.009-.008.014-.01.004-.006.008-.009.012-.012.004-.004.009-.008.015-.015.004-.003.009-.008.013-.011.004-.004.008-.008.011-.01l.015-.014c.005-.004.01-.009.014-.014.006-.004.01-.006.014-.009.004-.004.008-.008.014-.012.004-.006.009-.01.014-.014.004-.004.009-.008.011-.012.007-.004.011-.009.017-.013.004-.004.008-.006.013-.012l.014-.014c.003-.003.007-.006.011-.012.006-.003.01-.006.016-.01.003-.004.007-.009.012-.013.004-.003.01-.007.013-.012.005-.004.009-.008.014-.012.004-.003.01-.008.014-.013.005-.003.009-.008.013-.011.005-.005.011-.009.015-.014.003-.004.009-.007.013-.012.004-.003.008-.006.014-.011.004-.004.008-.008.013-.012.004-.005.009-.01.014-.014s.009-.008.013-.012c.004-.003.01-.008.016-.011.002-.005.006-.009.01-.011.006-.006.01-.012.014-.014.006-.005.01-.01.016-.014.004-.003.008-.007.012-.01.004-.004.009-.009.014-.013l.012-.012c.006-.005.01-.01.015-.014.006-.003.009-.007.014-.012.003-.004.007-.006.011-.011.005-.004.008-.009.014-.013.006-.003.01-.008.016-.013.004-.004.007-.006.012-.01.004-.005.009-.01.014-.014s.009-.008.014-.012c.004-.004.009-.007.013-.012.003-.004.009-.009.014-.012s.007-.008.013-.012c.005-.005.008-.009.015-.015.005-.002.009-.007.014-.01.003-.003.009-.008.011-.012.006-.004.01-.008.014-.013.005-.003.01-.008.014-.012.005-.004.01-.01.014-.012l.013-.012c.005-.004.008-.008.014-.012.005-.004.009-.01.014-.014.003-.003.009-.008.013-.011.006-.004.009-.009.014-.013.005-.003.009-.009.014-.013l.013-.012c.035-.03.063-.066.098-.097-1.154 1.054-2.704 1.7-4.4 1.7-3.511 0-6.417-2.752-6.417-6.224"/><path fill="#0F1F29" d="M137.279 9.349c-1.652 0-3.094.776-4.009 1.966.771-.477 1.685-.753 2.673-.753 2.825 0 5.047 2.254 5.047 4.988 0 1.12-.385 2.166-1.031 3.006 1.422-.891 2.367-2.457 2.367-4.216 0-2.736-2.221-4.991-5.047-4.991m13.177 11.022V8.312l-1.335 1.209v12.061h4.767l1.34-1.21-.003-.004v.004m7.658-.001h-1.372V8.311l-1.336 1.21v12.061h1.37l1.341-1.21-.003-.054"/><path fill="#CF961F" d="M45.043 20.371v-1.248h-3.397V8.309h-1.372v12.062M52.667 9.558h5.014V8.309h-6.384v12.062h6.384v-1.248h-5.014v-4.736h4.867v-1.246h-4.867v-2.373m12.328-2.969v12.572h1.373v-9.294l9.602 9.838V8.309h-1.372v9.342l-1.337-1.371-8.218-8.433-.047-.047M89.684 17.876c-.24.221-.488.396-.741.549-.04.024-.081.056-.122.077-.006.003-.011.007-.017.01-.897.495-1.884.611-3.007.611H84.8V9.558h.997c1.453 0 2.693.19 3.821 1.167 1.061.912 1.6 2.239 1.6 3.615.001 1.343-.522 2.607-1.534 3.536m.866-8.111c-1.454-1.215-2.956-1.456-4.801-1.456h-2.318v12.062h2.286c1.926 0 3.396-.24 4.866-1.52.121-.106.23-.217.34-.329 1.119-1.138 1.668-2.563 1.668-4.167-.001-1.791-.636-3.407-2.041-4.59m17.326 8.79c-.776.489-1.694.776-2.681.776-2.791 0-5.045-2.271-5.045-4.991 0-1.135.387-2.183 1.035-3.025.914-1.189 2.356-1.966 4.01-1.966 2.825 0 5.047 2.255 5.047 4.991 0 1.758-.945 3.325-2.366 4.215m-2.681-10.453c-1.594 0-3.061.582-4.189 1.534-1.357 1.147-2.229 2.833-2.229 4.72 0 3.472 2.907 6.224 6.418 6.224 1.732 0 3.314-.673 4.477-1.768 1.192-1.125 1.939-2.697 1.939-4.456 0-3.458-2.905-6.254-6.416-6.254m14.549 2.722V9.558h.506c1.6 0 3.217.145 3.217 2.11 0 1.172-.596 1.754-1.451 2.008-.406.12-.869.168-1.357.168h-.915v-3.02zm.996 4.269c1.027 0 2.089-.129 2.922-.801.068-.057.131-.117.193-.179.641-.626.982-1.524.982-2.414 0-1.071-.474-2.127-1.388-2.75-.898-.608-1.993-.641-3.055-.641h-2.024V20.37h1.373v-5.278h.997zm19.219 3.463c-.775.488-1.692.775-2.68.775-2.792 0-5.045-2.271-5.045-4.991 0-1.135.387-2.184 1.036-3.025.915-1.189 2.356-1.966 4.009-1.966 2.826 0 5.047 2.255 5.047 4.991 0 1.759-.945 3.325-2.367 4.216m-2.68-10.454c-1.629 0-3.121.606-4.26 1.598-1.316 1.146-2.156 2.803-2.156 4.656 0 3.472 2.905 6.224 6.416 6.224 1.695 0 3.246-.647 4.4-1.701 1.237-1.13 2.018-2.729 2.018-4.522 0-3.458-2.906-6.256-6.418-6.255m13.177.207v12.062h4.768v-1.248h-3.396V8.309m11.055 12.062V8.309h-1.372v12.062m12.93-6.91l-.815-.354c-.833-.367-1.927-.848-1.927-1.887 0-.209.043-.398.104-.58.267-.781 1.048-1.293 1.938-1.293 1.044 0 1.632.48 2.122 1.313l1.096-.688c-.056-.1-.119-.189-.18-.281-.675-1.007-1.75-1.59-3.007-1.59-.965 0-1.868.337-2.509.927-.572.529-.936 1.261-.936 2.146 0 1.728 1.24 2.447 2.677 3.087l.751.318c1.144.514 2.271.991 2.271 2.4 0 1.009-.667 1.815-1.552 2.164-.308.119-.64.187-.98.187-1.205 0-2.108-.836-2.396-1.915-.029-.105-.053-.214-.069-.323v-.001l-1.338.368.001.002c.394 1.872 1.861 3.118 3.836 3.118 1.026 0 1.957-.375 2.648-.995.751-.672 1.222-1.635 1.222-2.732 0-1.92-1.354-2.705-2.954-3.391"/></svg>
