<svg height="24" xmlns="http://www.w3.org/2000/svg" viewBox="0 0 1878.3 338.5"><title>LENDOPOLIS</title><circle cx="168.2" cy="166.5" r="162" fill="#fff"/><path d="M1110.6 102.6a72.56 72.56 0 0 0-47.1 17.6 71.72 71.72 0 0 0-25.1 54.2c0 39.4 32.4 71.5 72.2 71.5a71.87 71.87 0 0 0 50.3-20.3 70.4 70.4 0 0 0 21.8-51.2c.1-39.6-32.3-71.8-72.1-71.8zm26 113.5a48.18 48.18 0 0 1-26 7.7c-27 0-49-22.2-49-49.5a49.31 49.31 0 0 1 10.1-30 48.26 48.26 0 0 1 38.9-19.5c27 0 49 22.2 49 49.5a49.53 49.53 0 0 1-23 41.8zM1306 112.5c-10.3-7.1-22.3-7.7-34.8-7.7l-25.7.1v138.8h23.2v-57h6.2c10.2 0 23.3-1.1 33.7-9.6.8-.7 1.4-1.3 2.1-1.9l.3-.3a41.3 41.3 0 0 0 11.7-29.1c-.1-13.6-6.3-26.1-16.7-33.3zm-18.9 50.4a45.55 45.55 0 0 1-13.1 1.6h-5.3V127h1c19.7 0 29.6 2.8 29.6 18.4.1 9.4-3.8 15-12.2 17.5zM1449.7 102.6a72.43 72.43 0 0 0-72.2 71.8c0 39.4 32.4 71.5 72.2 71.5a72.32 72.32 0 0 0 49.5-19.5 70.26 70.26 0 0 0 22.7-52c.1-39.6-32.3-71.8-72.2-71.8zm26 113.5a48.18 48.18 0 0 1-26 7.7c-27 0-49-22.2-49-49.5a49.31 49.31 0 0 1 10.1-30 48.26 48.26 0 0 1 38.9-19.5c27 0 49 22.2 49 49.5a49.53 49.53 0 0 1-23 41.8zM1607.9 221.5V104.8h-23.2v138.9h59.1v-22.2h-35.9zM1701.5 104.8v138.9h23.2V104.8zM1844.4 160.8l-8.6-3.8c-10.1-4.6-17.8-8.6-17.8-16.4a15.48 15.48 0 0 1 .9-4.9c2.2-6.5 8.8-11 16.3-11 8.5 0 13.7 3.4 18.7 12l2.3 4 18.8-12.1-4-6.9a41.61 41.61 0 0 0-35.4-19.1 43.4 43.4 0 0 0-29.5 11.2 35.07 35.07 0 0 0-11.3 26.3c0 21.5 15.2 30.2 30.9 37.3l8 3.5.6.3c12.9 5.9 20.8 10.1 20.8 21.6 0 8.4-5.4 16-13.7 19.3a24 24 0 0 1-8.7 1.7c-10 0-18.3-6.8-21.1-17.4-.1-.5-1.3-8-1.3-8l-22.6 6.3.7 4.7c4.8 22.2 22.3 36.5 44.7 36.5A45.22 45.22 0 0 0 1864 234a44 44 0 0 0 14.3-32.7c-.1-23.7-17.6-33.3-33.9-40.5zM443.2 221.5V104.8h-23.3v138.9h59.2v-22.2h-35.9zM536.5 104.8v138.9h76.2v-22.2h-53v-42.4h51.4V157h-51.4v-30h53v-22.2h-76.2zM782.8 105v89.4l-101.5-91.8v141.5h23.2v-90.8L806 246V105zM958.6 121.6c-16.3-13.9-33.2-16.8-53.6-16.8h-28.9v138.9h28.6c21.4 0 37.9-2.9 54.3-17.5 1.4-1.2 2.6-2.5 3.8-3.7 12.4-12.8 18.9-29.4 18.9-48 0-21.6-8-39.9-23.1-52.9zm-15 87.6a96.13 96.13 0 0 1-8.4 6.2l-.1.1c-7.7 4.3-16.2 6-29.6 6h-6.2V127h6.2c14.7 0 26.7 2 37.5 11.5 9.8 8.6 15.4 21.6 15.4 35.7a46.57 46.57 0 0 1-14.8 35z"/><path d="M53.5 97.2l-8.3-13.8s-20.7 28.7-25.5 65.9c-3.8 29.6.7 54.5 8.4 73.4h40.2a15.06 15.06 0 0 1 6.4 1.5v-38.7c0-7.9 6.4-14.2 13.7-15h10.4zM238.9 170.7h10.4a15.35 15.35 0 0 1 13.7 15v38.7a13.72 13.72 0 0 1 6.4-1.5h40.2c7.7-19 12.2-43.8 8.4-73.4-4.8-37.2-25.5-65.9-25.5-65.9l-8.3 13.8zM215.2 35.9l1.4-9.9s-23.7-7.5-48.5-7.5C146.4 18.5 121 27 121 27l2.4 14.8.7 5.4 10 81.4h6.7a15 15 0 0 1 6 1.3v-24c0-7.9 6.9-14.9 14.7-14.9H177c7.9 0 13.8 7.1 13.8 14.9v23.9a14 14 0 0 1 5.8-1.2h7.3L214 46.1V46l1.2-10.1z" fill="#d1e5fc"/><path d="M169.2 0C75.9 0 0 75.9 0 169.2A169.9 169.9 0 0 0 67 304a169.31 169.31 0 0 0 271.6-134.7C338.5 75.9 262.6 0 169.2 0zm138 228.3h-38.3a7 7 0 0 0-7 7v51.9c-2.1 1.6-4.2 3.2-6.3 4.7v-108a7 7 0 0 0-7-7h-15.9a7 7 0 0 0-7 7l.2 124.3s-3.9 1.6-6.4 2.5V141.2a7 7 0 0 0-7-7h-15.9a7 7 0 0 0-7 7s0 176.6.1 176.7c-2 .3-4.1.5-6.2.7V104.2a7 7 0 0 0-7-7H161a7 7 0 0 0-7 7v214.4c-2.1-.2-4.3-.5-6.4-.8V141.1a7 7 0 0 0-7-7h-15.9a7 7 0 0 0-7 7v169.3c-2.6-.9-6.9-2.7-6.9-2.7l.1-123.9a7 7 0 0 0-7-7H88.7a7 7 0 0 0-7 7V291c-2.3-1.7-4.6-3.4-6.8-5.1v-50.7a7 7 0 0 0-7-7H31.3c-9.6-23.2-12.1-38.1-12.1-59.1C19.2 86.3 86.5 19 169.3 19s150.1 67.3 150.1 150.1a149.21 149.21 0 0 1-12.2 59.2z"/></svg>
