<svg xmlns="http://www.w3.org/2000/svg" viewBox="0 0 28.6 39.7"><path d="M5.8 33.9V.5h16.1v6.2h6.2v27.1H5.8z" fill="#fff"/><path d="M22.4 1.5l4.7 4.7h-4.8V1.5z" fill="#fff"/><path d="M13.1 0H5.3v34.4h23.3V6.3L22.4 0zM6.4 1h15v6.2h6.2v26.1H6.3zm16 .4l4.8 4.8h-4.8z"/><path d="M6.3 39.2a5.78 5.78 0 0 1-5.8-5.7 5.72 5.72 0 0 1 5.7-5.8 5.78 5.78 0 0 1 5.8 5.7 5.78 5.78 0 0 1-5.7 5.8z" fill="#68ffa0"/><path d="M6.3 27.2A6.25 6.25 0 0 0 0 33.4a6.32 6.32 0 0 0 6.2 6.3 6.25 6.25 0 0 0 6.3-6.2 6.19 6.19 0 0 0-6.2-6.3m0 1a5.2 5.2 0 0 1 0 10.4 5.16 5.16 0 0 1-5.2-5.2 5.23 5.23 0 0 1 5.2-5.2"/><path d="M8.4 6.2h9.3V3.1H8.4zm0 4.7h17.1V9.4H8.4zm0 3.2h10.9v-1.6H8.4zm0 3.1h14v-1.6h-14zm0 3.1h4.7v-1.6H8.4zm12.4 7.8h4.7v-1.6h-4.7zm-3.1 3.2h7.8v-1.6h-7.8zM8.5 34l-1.4-1.5-.7-.7-.7.7L4.1 34l.7.7 1.5-1.5 1.5 1.5z"/></svg>
