<svg width="68" height="70" viewBox="0 0 68 70" xmlns="http://www.w3.org/2000/svg" fill="none"><path d="M33.617 26.667a3.828 3.828 0 0 0-4.637-2.772 3.812 3.812 0 0 0-2.872 3.853v.223l-.18.13L5.954 42.633l-.25-.252a3.08 3.08 0 0 0-3.64-.372A3.042 3.042 0 0 0 .657 45.37l2.15 8.573a3.024 3.024 0 0 0 1.396 1.876 3.1 3.1 0 0 0 2.32.347c.135-.038.266-.086.394-.143l.43-.176.163.428c.36 1.457 1.542 2.295 3.633 2.586l.316.043.89 6.947c.172 1.467 1.63 2.067 2.254 2.324.622.257 2.115.38 4.737.557l.48.034c1.053.07 1.89-.286 2.288-.953.357-.652.3-1.45-.144-2.047-.407-.634-1.914-4.634-2.718-6.9l-.163-.453.48-.1c1.473-.304 2.832-.924 2.774-3.333v-.442l10.596.476.11.22a3.81 3.81 0 0 0 4.307 1.91c2.048-.512 3.295-2.576 2.785-4.615l-6.518-25.863zM7.037 53.952a1.463 1.463 0 0 1-1.254.709 1.476 1.476 0 0 1-1.435-1.105l-2.15-8.57a1.469 1.469 0 0 1 1.068-1.773 1.482 1.482 0 0 1 1.11.167c.337.197.578.52.67.896l2.154 8.58c.096.373.037.768-.163 1.096zm13.52 12.596l.325.557-.646.066H19.9l-.477-.032a31.916 31.916 0 0 1-4.207-.428c-.79-.324-1.254-.6-1.302-1.058l-.856-6.666h.478c1.173-.038 2.307-.172 3.35-.305l.527-.066.115.315c.56 1.484 2.378 6.503 3.03 7.622v-.004zm-2.915-9.59l-.957.113c-1.29.187-2.588.294-3.89.32-2.365 0-3.633-.57-3.78-1.704-.1-.47-.1-.958 0-1.43l.085-.327 11.58.475.025.37c.12 1.758-.483 1.892-3.063 2.187v-.005zm-8.92-4.634l-2.068-8.23.096-.07L26.486 29.67l.067.26 5.877 23.403-23.708-1.01zm29.585 2.32a1.912 1.912 0 0 1-1.766 1.07c-1.23 0-2.023-.576-2.296-1.662l-6.49-25.89a2.205 2.205 0 0 1 .552-2.2 2.233 2.233 0 0 1 2.208-.565c.784.23 1.378.87 1.548 1.665l6.494 25.88a2.254 2.254 0 0 1-.25 1.7z" fill="#333"/><path d="M25.19 36.71a.929.929 0 0 0-1.27-.296l-8.005 4.938a.917.917 0 0 0-.297 1.262.96.96 0 0 0 1.268.296l8.02-4.94a.913.913 0 0 0 .284-1.26zm.028 3.838a.926.926 0 0 0-.69.114l-3.196 1.97a.92.92 0 0 0-.297 1.263.96.96 0 0 0 1.27.295l3.196-1.97a.913.913 0 0 0-.272-1.672h-.01zm24.096-.072a.806.806 0 0 0-.593-.195l-2.335.187c-.426.04-.75.4-.743.825a.816.816 0 0 0 .772.798h.105l2.316-.185a.812.812 0 0 0 .727-.553.805.805 0 0 0-.25-.876zM44.237 16.77a.877.877 0 0 0-.675 0l-5.164 2.154a.876.876 0 0 0 .287 1.686 1.28 1.28 0 0 0 .388-.067l5.164-2.157a.875.875 0 0 0 0-1.619v.004zm18.755 37.444L56.47 53.2h-.126a.813.813 0 1 0-.125 1.619l6.494 1.004h.192a.814.814 0 0 0 .062-1.619l.024.01zm3.771-35.644l-1.914-.084-1.006-1.61a.414.414 0 0 0-.354-.195h-.044a.415.415 0 0 0-.344.268l-.67 1.77-1.847.477a.412.412 0 1 0-.162.728l1.483 1.18v.09l-.13 1.796c-.01.16.07.31.206.39a.424.424 0 0 0 .44 0l1.59-1.042 1.76.714c.144.057.307.03.425-.07.117-.1.17-.256.135-.406l-.502-1.824 1.225-1.428a.42.42 0 0 0 .062-.434.419.419 0 0 0-.354-.32zm-1.704 1.763a.41.41 0 0 0-.082.377l.34 1.223-1.168-.504a.412.412 0 0 0-.388.037l-1.067.7.09-1.267a.416.416 0 0 0-.157-.357l-1.014-.78 1.24-.306a.41.41 0 0 0 .29-.257l.45-1.186.676 1.076c.072.117.197.19.335.196l1.273.057-.82.99zM47.18 53.4v.033l-.062.838a.476.476 0 0 0 .228.497c.174.1.392.084.547-.043l.727-.476.81.328c.175.092.39.066.54-.065.148-.13.2-.34.13-.524l-.23-.838.56-.667a.474.474 0 0 0 .107-.533.478.478 0 0 0-.467-.285l-.87-.038-.48-.738a.473.473 0 0 0-.425-.234h-.048a.479.479 0 0 0-.416.32l-.306.814-.847.21a.497.497 0 0 0-.368.375c-.04.18.03.366.176.478l.694.552zM59.316 4.07l-4-.184-.168-.262L53.195.5a.609.609 0 0 0-.526-.29h-.063a.612.612 0 0 0-.517.395l-1.436 3.733-3.89.952a.618.618 0 0 0-.26 1.091l3.126 2.487v.304l-.24 3.687a.62.62 0 0 0 .307.576.64.64 0 0 0 .66 0l3.35-2.195 3.714 1.5c.22.086.47.044.647-.11a.61.61 0 0 0 .187-.623l-1.062-3.843 2.584-3.052a.619.619 0 0 0-.445-1.014l-.014-.025zm-3.302 3.52a.61.61 0 0 0-.124.562l.813 2.948-2.87-1.148a.632.632 0 0 0-.58.058l-2.57 1.68.22-3.052a.614.614 0 0 0-.23-.528L48.28 6.205l2.987-.734a.608.608 0 0 0 .43-.38l1.087-2.857L54.41 4.83a.629.629 0 0 0 .48.29l3.072.137-1.948 2.333zm4.154 27.272l-1.124-.052-.6-.953a.298.298 0 0 0-.257-.143h-.03a.301.301 0 0 0-.252.196l-.398 1.047-1.096.272a.301.301 0 0 0-.118.527l.88.7v.033l-.076 1.09a.296.296 0 0 0 .15.29c.104.06.232.053.328-.018l.958-.62 1.043.425a.3.3 0 0 0 .268-.038.3.3 0 0 0 .09-.306l-.296-1.08.727-.858a.3.3 0 0 0-.215-.476l.018-.038zm-1.134 1.357l.177.647-.62-.253a.3.3 0 0 0-.283.03l-.565.37.048-.67a.3.3 0 0 0-.115-.258l-.526-.42.654-.16a.302.302 0 0 0 .21-.187l.24-.63.354.572a.305.305 0 0 0 .244.143l.675.028-.435.515a.297.297 0 0 0-.058.276v-.005zM55.737 68.3l-9.835-8.6a.817.817 0 0 0-.536-.2h-.057a.817.817 0 0 0-.767.82.902.902 0 0 0 0 .104.82.82 0 0 0 .273.5l9.84 8.6a.821.821 0 0 0 1.155-.074.811.811 0 0 0-.073-1.15z" fill="#333"/><path stroke="#333" stroke-width="1.19" d="M65.457 44.295l-2.26-1.8 2.7-1.047zM51.372 26.686l-3.632 4.257-1.89-5.253z"/></svg>
