<svg width="90" height="90" viewBox="0 0 90 90" xmlns="http://www.w3.org/2000/svg" xmlns:xlink="http://www.w3.org/1999/xlink"><defs><path id="a" d="M0 0h16l8 8v26H0z"/><mask id="f" x="0" y="0" width="24" height="34" fill="#fff"><use xlink:href="#a"/></mask><path id="b" d="M16 0l8 8h-8z"/><mask id="g" x="0" y="0" width="8" height="8" fill="#fff"><use xlink:href="#b"/></mask><path id="c" d="M0 0h16l8 8v26H0z"/><mask id="h" x="0" y="0" width="24" height="34" fill="#fff"><use xlink:href="#c"/></mask><path id="d" d="M16 0l8 8h-8z"/><mask id="i" x="0" y="0" width="8" height="8" fill="#fff"><use xlink:href="#d"/></mask><circle id="e" cx="6.5" cy="6.5" r="6.5"/><mask id="j" x="0" y="0" width="13" height="13" fill="#fff"><use xlink:href="#e"/></mask></defs><g fill="none" fill-rule="evenodd"><g transform="translate(33 28)"><use stroke="#333" mask="url(#f)" stroke-width="2" fill="#FFF" xlink:href="#a"/><path fill="#333" d="M3 3h9v2H3zm0 7h16v2H3zm0 4h10v2H3zm0 4h13v2H3zm0 4h5v2H3zm11 7h7v2h-7zm3-3h4v2h-4z"/><use stroke="#333" mask="url(#g)" stroke-width="2" fill="#FBFBFB" xlink:href="#b"/></g><g transform="translate(33 28)"><use stroke="#333" mask="url(#h)" stroke-width="2" fill="#FFF" xlink:href="#c"/><path fill="#333" d="M3 3h9v2H3zm0 7h16v2H3zm0 4h10v2H3zm0 4h13v2H3zm0 4h5v2H3zm11 7h7v2h-7zm3-3h4v2h-4z"/><use stroke="#333" mask="url(#i)" stroke-width="2" fill="#FBFBFB" xlink:href="#d"/></g><g transform="translate(27 55)"><use stroke="#333" mask="url(#j)" stroke-width="2" fill="#68FFA0" xlink:href="#e"/><g fill="#333"><path d="M6.5 4.38l.707.706-2.12 2.12-.708-.706z"/><path d="M6.5 4.38L8.62 6.5l-.706.707-2.12-2.12z"/></g></g></g></svg>
