<svg xmlns="http://www.w3.org/2000/svg" viewBox="0 0 28.52 39.68"><defs><mask id="a" x="0" y="27.17" width="12.44" height="12.51" maskUnits="userSpaceOnUse"><path fill="#fff" d="M8 34.34v12.51h12.44V34.34H8z" transform="translate(-8 -7.17)"/></mask></defs><path fill="#fff" d="M5.71 33.87V.52h16.07v6.25H28v27.1H5.71z"/><path fill="#fff" d="M22.3 1.47l4.75 4.78H22.3V1.47z"/><path d="M13 0H5.19v34.4h23.33V6.26L22.3 0zM6.26 1h15v6.25h6.22v26.1H6.23zm16.07.43l4.75 4.78H22.3z"/><path d="M6.22 39.16a5.73 5.73 0 1 1 5.7-5.73 5.72 5.72 0 0 1-5.7 5.73z" fill="#68ffa0"/><g mask="url(#a)"><path d="M6.22 27.17a6.25 6.25 0 1 0 6.22 6.25 6.24 6.24 0 0 0-6.22-6.25m0 1A5.21 5.21 0 1 1 1 33.43a5.2 5.2 0 0 1 5.18-5.21"/></g><path d="M8.3 6.25h9.33V3.13H8.3v3.12zM8.3 10.94h17.11V9.38H8.3v1.56zM8.3 14.07h10.89v-1.56H8.3v1.56zM8.3 17.2h14v-1.57h-14v1.57zM8.3 20.32h4.67v-1.56H8.3v1.56zM20.74 28.14h4.67v-1.56h-4.67v1.56zM17.63 31.27h7.78V29.7h-7.78v1.57zM8.45 34l-1.49-1.5-.73-.74h-.02l-.73.74L3.99 34l.74.74 1.49-1.5 1.49 1.5.74-.74z"/></svg>