<svg xmlns="http://www.w3.org/2000/svg" xmlns:xlink="http://www.w3.org/1999/xlink" viewBox="0 0 28.52 39.68"><defs><mask id="a" x="0" y="27.17" width="12.44" height="12.51" maskUnits="userSpaceOnUse"><g transform="translate(-8 -7.17)"><polygon points="8 34.34 8 46.85 20.44 46.85 20.44 34.34 8 34.34" fill="#fff"/></g></mask></defs><polygon points="5.71 33.87 5.71 0.52 21.78 0.52 21.78 6.77 28 6.77 28 33.87 5.71 33.87" fill="#fff"/><polygon points="22.3 1.47 27.05 6.25 22.3 6.25 22.3 1.47" fill="#fff"/><path d="M21,7.17H13.19V41.57H36.52V13.43L30.3,7.17Zm-6.74,1h15v6.25h6.22V40.52H14.23Zm16.07.43,4.75,4.78H30.3Z" transform="translate(-8 -7.17)"/><path d="M14.22,46.33a5.73,5.73,0,1,1,5.7-5.73A5.72,5.72,0,0,1,14.22,46.33Z" transform="translate(-8 -7.17)" fill="#68ffa0"/><g mask="url(#a)"><path d="M14.22,34.34a6.25,6.25,0,1,0,6.22,6.25,6.24,6.24,0,0,0-6.22-6.25m0,1A5.21,5.21,0,1,1,9,40.6a5.2,5.2,0,0,1,5.18-5.21" transform="translate(-8 -7.17)"/></g><polygon points="8.3 6.25 17.63 6.25 17.63 3.13 8.3 3.13 8.3 6.25"/><polygon points="8.3 10.94 25.41 10.94 25.41 9.38 8.3 9.38 8.3 10.94"/><polygon points="8.3 14.07 19.19 14.07 19.19 12.51 8.3 12.51 8.3 14.07"/><polygon points="8.3 17.2 22.3 17.2 22.3 15.63 8.3 15.63 8.3 17.2"/><polygon points="8.3 20.32 12.97 20.32 12.97 18.76 8.3 18.76 8.3 20.32"/><polygon points="20.74 28.14 25.41 28.14 25.41 26.58 20.74 26.58 20.74 28.14"/><polygon points="17.63 31.27 25.41 31.27 25.41 29.7 17.63 29.7 17.63 31.27"/><polygon points="8.45 34 6.96 32.5 6.96 32.5 6.23 31.76 6.22 31.76 6.21 31.76 5.48 32.5 5.48 32.5 3.99 34 4.73 34.74 6.22 33.24 7.71 34.74 8.45 34"/></svg>
