<svg width="90" height="90" xmlns="http://www.w3.org/2000/svg" viewBox="0 0 165 228.4"><path fill="#fff" d="M33 195V3h93v36h36v156H33z"/><path fill="none" d="M156.5 36L129 8.5V36h27.5z"/><path fill="none" d="M159 42h-36V6H36v186h123V42z"/><path d="M129 0H30v198h135V36zm27.5 36H129V8.5zm2.5 156H36V6h87.1v36h36v150z"/><path d="M36 225.4a33 33 0 1 1 33-33 33 33 0 0 1-33 33z" fill="#68ffa0"/><path d="M36 162.4a30 30 0 1 1-30 30 30.09 30.09 0 0 1 30-30m0-6a36 36 0 1 0 36 36 36 36 0 0 0-36-36zM48 18h54v18H48zM48 54h99v9H48zM48 72h63v9H48zM48 90h81v9H48zM48 108h27v9H48zM120 153h27v9h-27zM102 171h45v9h-45z"/><path d="M48.9 195.7l-8.7-8.6.1-.1-4.3-4.2h-.1l-4.2 4.2v.1l-8.6 8.6 4.2 4.3 8.7-8.7 8.6 8.7 4.3-4.3z"/></svg>
