<svg width="80" height="29" viewBox="0 0 80 29" xmlns="http://www.w3.org/2000/svg" xmlns:xlink="http://www.w3.org/1999/xlink"><title>hellomerci</title><defs><path id="a" d="M20.49.272H0v20.49h20.49V.272z"/><path id="c" d="M.233 10.783h9.08V.203H.232z"/></defs><g fill="none" fill-rule="evenodd"><g transform="translate(0 .02)"><mask id="b" fill="#fff"><use xlink:href="#a"/></mask><path d="M10.244 1.742c4.84 0 8.775 3.936 8.775 8.774 0 4.84-3.937 8.776-8.776 8.776-4.838 0-8.774-3.936-8.774-8.776 0-4.838 3.936-8.774 8.774-8.774m0 19.02c5.65 0 10.245-4.596 10.245-10.246C20.49 4.868 15.892.272 10.243.272 4.596.272 0 4.868 0 10.516c0 5.65 4.596 10.246 10.244 10.246" fill="#333" mask="url(#b)"/></g><path d="M10.244 16.05c3.254 0 5.902-2.322 5.902-5.176 0-.41-.34-.743-.757-.743s-.756.334-.756.744c0 2.033-1.97 3.686-4.39 3.686s-4.39-1.653-4.39-3.686c0-.41-.34-.743-.755-.743-.418 0-.757.334-.757.744 0 2.854 2.647 5.175 5.9 5.175M17.004 20.666c-.15-.1-.336-.11-.492-.024l-6.267 3.652-6.268-3.652c-.156-.085-.343-.076-.492.024-.15.1-.24.275-.24.464v7.002c0 .19.09.365.24.464.15.1.336.11.492.024l6.268-3.652 6.267 3.652c.07.04.148.058.226.058.092 0 .184-.027.266-.082.148-.1.24-.275.24-.464V21.13c0-.19-.092-.364-.24-.464M25.044 2.06c0-.925.54-1.407 1.36-1.407.82 0 1.36.482 1.36 1.407v3.873h.038c.54-.732 1.492-1.483 3.04-1.483 1.64 0 3.43.848 3.43 3.7v5.473c0 .75-.298 1.406-1.36 1.406-1.064 0-1.362-.656-1.362-1.407V8.708c0-1.136-.54-1.946-1.715-1.946-.95 0-2.07.81-2.07 2.216v4.645c0 .75-.298 1.406-1.36 1.406-1.063 0-1.36-.656-1.36-1.407V2.06zM43.575 8.65c-.15-1.29-1.08-2.235-2.293-2.235-1.36 0-2.18.867-2.48 2.236h4.773zm-4.772 1.62c0 1.483.93 2.562 2.517 2.562 2.05 0 2.05-1.387 3.15-1.387.653 0 1.12.578 1.12 1.098 0 1.696-2.63 2.486-4.27 2.486-3.804 0-5.24-2.66-5.24-5.108 0-3.276 1.92-5.472 5.146-5.472 3.133 0 4.922 2.293 4.922 4.605 0 .964-.28 1.214-1.193 1.214h-6.152zM47.993 2.06c0-.925.54-1.407 1.36-1.407.82 0 1.362.482 1.362 1.407v11.563c0 .925-.54 1.406-1.36 1.406-.82 0-1.362-.482-1.362-1.407V2.06zM53.175 2.06c0-.925.54-1.407 1.362-1.407.82 0 1.36.482 1.36 1.407v11.563c0 .925-.54 1.406-1.36 1.406-.82 0-1.362-.482-1.362-1.407V2.06zM62.833 12.948c1.622 0 2.312-1.503 2.312-3.218 0-1.83-.727-3.2-2.312-3.2-1.584 0-2.312 1.37-2.312 3.2 0 1.715.69 3.218 2.313 3.218m0-8.498c3.282 0 5.034 2.312 5.034 5.28 0 2.813-1.324 5.3-5.034 5.3S57.8 12.542 57.8 9.73c0-2.968 1.752-5.28 5.033-5.28M25.044 19.698c0-.848.484-1.407 1.286-1.407.8 0 1.286.56 1.286 1.408v.366h.037c.71-1.117 1.902-1.773 3.282-1.773.932 0 2.106.444 2.61 1.774.764-1.098 1.734-1.773 3.206-1.773 1.884 0 3.395.888 3.395 3.412v5.762c0 .752-.298 1.407-1.362 1.407-1.062 0-1.36-.654-1.36-1.406v-5.05c0-1-.43-1.81-1.492-1.81-1.043 0-1.975.867-1.975 2.177v4.684c0 .752-.298 1.407-1.36 1.407-1.064 0-1.362-.654-1.362-1.406v-5.05c0-1-.43-1.81-1.49-1.81-1.045 0-1.978.867-1.978 2.177v4.684c0 .752-.298 1.407-1.36 1.407-1.063 0-1.36-.654-1.36-1.406v-7.766zM49.39 22.492c-.148-1.29-1.08-2.235-2.292-2.235-1.36 0-2.18.867-2.48 2.235h4.773zm-4.77 1.62c0 1.483.93 2.562 2.516 2.562 2.05 0 2.05-1.388 3.15-1.388.653 0 1.12.58 1.12 1.1 0 1.695-2.63 2.485-4.27 2.485-3.804 0-5.24-2.66-5.24-5.106 0-3.276 1.92-5.473 5.146-5.473 3.133 0 4.922 2.295 4.922 4.607 0 .963-.28 1.214-1.193 1.214h-6.15zM53.865 19.602c0-.848.54-1.31 1.23-1.31s1.23.462 1.23 1.31v1.08h.038c.318-1.177.933-2.39 2.257-2.39.857 0 1.49.578 1.49 1.368 0 1.04-.67 1.406-1.34 1.406h-.486c-1.1 0-1.696.79-1.696 3.122v3.276c0 .75-.3 1.407-1.362 1.407-1.063 0-1.36-.655-1.36-1.406v-7.862z" fill="#333"/><g transform="translate(60.326 18.088)"><mask id="d" fill="#fff"><use xlink:href="#c"/></mask><path d="M5.34.203c2.276 0 3.972 1.33 3.972 2.64 0 .81-.578 1.215-1.268 1.215-1.286 0-.82-1.658-2.777-1.658-1.063 0-2.312.752-2.312 3.295 0 1.754.802 2.89 2.293 2.89 1.902 0 1.49-1.81 2.927-1.81.69 0 1.137.52 1.137 1.08 0 1.232-1.342 2.928-4.14 2.928-3.355 0-4.94-2.14-4.94-5.088 0-3.237 1.772-5.492 5.11-5.492" fill="#333" mask="url(#d)"/></g><path d="M71.24 19.698c0-.75.3-1.407 1.362-1.407 1.063 0 1.36.657 1.36 1.408v7.766c0 .752-.297 1.407-1.36 1.407-1.063 0-1.36-.654-1.36-1.406v-7.766zm1.362-5.28c.783 0 1.417.655 1.417 1.464 0 .81-.635 1.465-1.418 1.465-.783 0-1.417-.655-1.417-1.465s.634-1.464 1.417-1.464zM77.694 11.51c-1.084 0-1.967.882-1.967 1.967 0 1.084.883 1.967 1.967 1.967 1.085 0 1.967-.883 1.967-1.967 0-1.085-.88-1.967-1.966-1.967m0 4.225c-1.245 0-2.258-1.013-2.258-2.258 0-1.246 1.013-2.26 2.258-2.26s2.26 1.014 2.26 2.26c0 1.245-1.015 2.258-2.26 2.258" fill="#333"/><path d="M77.285 12.64v.62h.52c.105 0 .182-.01.234-.036.09-.044.137-.13.137-.26 0-.142-.045-.236-.133-.284-.05-.027-.124-.04-.224-.04h-.535zm1-.343c.086.036.158.09.218.16.05.06.088.125.116.196.028.07.042.153.042.244 0 .11-.027.218-.083.324-.057.108-.148.183-.276.227.107.043.182.104.227.183.045.08.067.2.067.362v.156c0 .106.005.177.014.215.013.06.043.104.09.132v.058h-.534c-.015-.05-.025-.093-.032-.124-.012-.066-.02-.133-.02-.2l-.003-.216c-.002-.148-.027-.246-.076-.296-.05-.05-.14-.073-.276-.073h-.473v.908h-.473v-2.316h1.11c.157.003.28.023.364.06z" fill="#333"/></g></svg>
