<svg width="138" height="30" viewBox="0 0 138 30" xmlns="http://www.w3.org/2000/svg" xmlns:xlink="http://www.w3.org/1999/xlink"><title>KissKissBankBank</title><defs><path id="a" d="M0 29.966h137.812V0H0z"/><path id="c" d="M0 29.966h137.812V0H0z"/><path id="e" d="M137.812 29.966V0H0v29.966z"/></defs><g fill="none" fill-rule="evenodd"><mask id="b" fill="#fff"><use xlink:href="#a"/></mask><path d="M135.85 19.266v-.48h.305c.04 0 .083.003.128.01.046.004.087.015.123.03.036.017.066.04.09.07.022.028.034.067.034.117 0 .11-.034.18-.1.21-.068.028-.153.043-.258.043h-.323zm.75.227c.06-.02.11-.05.152-.088.044-.038.078-.086.103-.146.024-.06.037-.132.037-.216 0-.198-.062-.338-.185-.42-.124-.08-.3-.122-.53-.122h-.69v1.828h.362v-.78h.227l.444.78h.38l-.488-.798c.067-.006.13-.02.188-.04zm.67.44c-.066.157-.154.293-.265.408-.11.116-.24.205-.39.27-.15.063-.31.095-.478.095-.17 0-.332-.032-.48-.096-.15-.065-.282-.154-.392-.27-.11-.114-.198-.25-.262-.407-.064-.157-.096-.33-.096-.514 0-.188.032-.36.096-.515.064-.155.15-.29.262-.403.11-.113.24-.202.39-.266.15-.063.31-.096.482-.096.17 0 .328.033.478.096.15.064.28.153.39.266.11.113.2.248.264.403.065.156.097.327.097.514 0 .184-.032.356-.098.513zm.405-1.186c-.092-.2-.215-.372-.37-.513-.152-.14-.33-.25-.533-.327-.202-.077-.413-.116-.635-.116-.22 0-.432.04-.634.117-.202.077-.38.186-.535.327-.154.14-.277.312-.37.513-.09.2-.135.424-.135.672 0 .25.045.474.136.675.09.2.214.372.368.514.154.142.333.25.535.327.202.075.413.113.634.113.222 0 .433-.038.635-.113.203-.076.38-.185.534-.328.154-.143.277-.315.37-.515.09-.2.136-.426.136-.676 0-.25-.045-.473-.137-.673zm-43.4 8.016h-2.94v-3.236h2.94c1.106 0 1.974.414 1.974 1.658 0 1.164-.81 1.578-1.974 1.578zm-2.835-8.306h2.84c.77 0 1.5.336 1.5 1.36 0 1.007-.867 1.342-1.5 1.342h-2.84v-2.703zm6.052 3.53c1.104-.55 1.854-1.577 1.854-2.84 0-2.94-2.664-3.57-5.09-3.532h-6.59v14.088h6.767c3.02 0 5.485-1.026 5.485-4.38 0-1.598-.927-2.9-2.426-3.335zm-40.966 5.915c-.747 0-1.397-.335-1.397-1.16 0-.807.63-1.122 1.376-1.3.728-.196 1.594-.255 2.065-.55.08 2.104-.45 3.01-2.044 3.01zm5.27-5.31c0-2.892-2.34-3.422-4.76-3.422-1.158 0-2.34.197-3.243.708-.904.53-1.535 1.396-1.593 2.733h3.127c.157-.863.747-1.278 1.67-1.278.69 0 1.614.296 1.614 1.064 0 .628-.314.825-.884.942-2.32.473-5.94.217-5.94 3.54 0 2.106 1.534 3.088 3.48 3.088 1.22 0 2.5-.354 3.365-1.26.04.336.08.65.197.966h3.363c-.393-.807-.393-1.75-.393-2.616v-4.464zm7.605-3.422c-1.218 0-2.594.65-3.204 1.69h-.04v-1.395H62.91v10.207h3.345v-5.567c0-1.12.55-2.182 1.81-2.182 1.828 0 1.67 1.415 1.67 2.812v4.937h3.344v-6.55c0-1.474-.277-3.952-3.68-3.952zm-23.81 7.593h-2.94v-3.236h2.94c1.106 0 1.974.414 1.974 1.658 0 1.164-.81 1.578-1.974 1.578zm-2.94-8.306h2.842c.77 0 1.5.336 1.5 1.36 0 1.007-.87 1.342-1.5 1.342h-2.84v-2.703zm6.157 3.53c1.104-.55 1.854-1.577 1.854-2.84 0-2.94-2.662-3.57-5.09-3.532h-6.59v14.088h6.768c3.02 0 5.485-1.026 5.485-4.38 0-1.598-.927-2.9-2.426-3.335zm35.653-2.522h-3.754l-3.168 3.27v-7.106h-3.344V29.67h3.344v-5.238l3.47 5.238h3.924l-4.21-6.352 3.738-3.855zm33.627-.295c-1.22 0-2.596.65-3.206 1.69h-.038v-1.395h-3.245v10.207h3.343v-5.567c0-1.12.55-2.182 1.81-2.182 1.828 0 1.67 1.415 1.67 2.812v4.937h3.344v-6.55c0-1.474-.276-3.952-3.677-3.952zm15.057.295h-3.752l-3.17 3.27v-7.106h-3.343V29.67h3.342v-5.238l3.47 5.238h3.925l-4.21-6.352 3.737-3.855zm-27.933 8.437c-.746 0-1.395-.335-1.395-1.16 0-.807.63-1.122 1.377-1.3.727-.196 1.592-.255 2.064-.55.08 2.104-.452 3.01-2.045 3.01zm5.27-5.31c0-2.892-2.338-3.422-4.757-3.422-1.16 0-2.34.197-3.245.708-.905.53-1.534 1.396-1.593 2.733h3.126c.16-.863.75-1.278 1.674-1.278.688 0 1.612.296 1.612 1.064 0 .628-.315.825-.885.942-2.32.473-5.938.217-5.938 3.54 0 2.106 1.534 3.088 3.48 3.088 1.22 0 2.498-.354 3.363-1.26.04.336.08.65.197.966h3.363c-.394-.807-.394-1.75-.394-2.616v-4.464zM94.03 2.72h3.34V0h-3.34v2.72zm0 11.32h3.34V3.836h-3.34V14.04zM83.842 6.164l5.405 7.878h4.41L87.8 5.503 92.963 0h-4.327l-4.793 5.107V0h-3.657v14.04h3.657V6.164zm29.724 6.01c-.472 0-.924-.118-1.24-.354-.333-.256-.55-.63-.55-1.14h-3.185c.098 2.85 2.576 3.656 4.994 3.656 2.3 0 4.898-.904 4.898-3.638 0-.845-.53-2.34-2.597-2.753-1.533-.334-3.775-.51-3.775-1.475 0-.708.885-.767 1.435-.767.414 0 .787.08 1.062.255.275.178.432.453.432.885h3.087c-.118-2.654-2.46-3.302-4.7-3.302-2.006 0-4.662.67-4.662 3.126 0 2.753 2.636 2.813 4.74 3.344.59.138 1.632.295 1.632 1.082 0 .806-.924 1.08-1.573 1.08zm-10.476 0c-.47 0-.923-.118-1.238-.354-.335-.256-.55-.63-.55-1.14h-3.186c.097 2.85 2.575 3.656 4.995 3.656 2.3 0 4.897-.904 4.897-3.638 0-.845-.53-2.34-2.596-2.753-1.533-.334-3.774-.51-3.774-1.475 0-.708.884-.767 1.435-.767.414 0 .788.08 1.064.255.274.178.432.453.432.885h3.087c-.118-2.654-2.458-3.302-4.7-3.302-2.006 0-4.66.67-4.66 3.126 0 2.753 2.634 2.813 4.74 3.344.59.138 1.63.295 1.63 1.082 0 .806-.923 1.08-1.572 1.08zM52.825 2.72h3.342V0h-3.342v2.72zm0 11.32h3.342V3.836h-3.342V14.04zM42.638 6.164l5.404 7.878h4.41l-5.857-8.538L51.758 0H47.43l-4.792 5.107V0H38.98v14.04h3.658V6.164zm29.723 6.01c-.47 0-.923-.118-1.237-.354-.335-.256-.55-.63-.55-1.14h-3.187c.1 2.85 2.576 3.656 4.995 3.656 2.302 0 4.898-.904 4.898-3.638 0-.845-.53-2.34-2.596-2.753-1.533-.334-3.775-.51-3.775-1.475 0-.708.884-.767 1.435-.767.413 0 .787.08 1.063.255.274.178.432.453.432.885h3.087c-.117-2.654-2.458-3.302-4.7-3.302-2.006 0-4.66.67-4.66 3.126 0 2.753 2.634 2.813 4.74 3.344.59.138 1.63.295 1.63 1.082 0 .806-.924 1.08-1.573 1.08zm-10.634 0c-.472 0-.924-.118-1.238-.354-.335-.256-.552-.63-.552-1.14H56.75c.1 2.85 2.577 3.656 4.996 3.656 2.3 0 4.897-.904 4.897-3.638 0-.845-.53-2.34-2.597-2.753-1.533-.334-3.775-.51-3.775-1.475 0-.708.886-.767 1.436-.767.414 0 .787.08 1.063.255.275.178.43.453.43.885h3.09c-.12-2.654-2.46-3.302-4.7-3.302-2.007 0-4.662.67-4.662 3.126 0 2.753 2.635 2.813 4.74 3.344.59.138 1.632.295 1.632 1.082 0 .806-.924 1.08-1.574 1.08z" fill="#000" mask="url(#b)"/><mask id="d" fill="#fff"><use xlink:href="#c"/></mask><path d="M27.848 14.85c1.86-.326 3.274-1.948 3.27-3.902-.004-2.185-1.778-3.954-3.962-3.95-1.055 0-2.012.415-2.72 1.087l-.016.014-6.744 6.763 6.59 6.57c.726.785 1.762 1.274 2.913 1.27 2.185 0 3.952-1.773 3.95-3.96-.003-1.953-1.42-3.573-3.282-3.894z" fill="#000" mask="url(#d)"/><g><mask id="f" fill="#fff"><use xlink:href="#e"/></mask><path d="M20.276 6.696C18.136 4.42 15.1 3 11.732 3 5.252 3 0 8.252 0 14.732c0 6.48 5.252 11.734 11.732 11.734 3.295 0 6.27-1.36 8.403-3.547l-8.04-8.042 8.18-8.182z" fill="#000" mask="url(#f)"/></g></g></svg>
