<svg width="84" height="74" viewBox="0 0 84 74" xmlns="http://www.w3.org/2000/svg"><title>mix-illustration</title><g fill-rule="nonzero" fill="#4A84FF"><circle cx="57" cy="25" r="1"/><circle fill-opacity=".2" cx="29" cy="38" r="10"/><circle fill-opacity=".2" cx="49" cy="61" r="11"/><path d="M60.45 44c-4.803-.265-8.883-3.589-10.093-8.222a10.983 10.983 0 0 1 4.791-12.072 11.112 11.112 0 0 1 13.016.857.732.732 0 0 1 .108 1.017l-5.843 7.377 7.29 5.7c.317.25.374.703.128 1.022a11.029 11.029 0 0 1-3.09 2.747 11.156 11.156 0 0 1-5.714 1.57l-.592.004z" fill-opacity=".2"/><path d="M57.051 44h-.6c-4.804-.265-8.884-3.589-10.094-8.222a10.983 10.983 0 0 1 4.791-12.072 11.112 11.112 0 0 1 13.016.857.732.732 0 0 1 .108 1.017l-5.843 7.377 7.29 5.7c.317.25.374.703.128 1.022a11.029 11.029 0 0 1-3.09 2.747 11.156 11.156 0 0 1-5.714 1.57l.005.004h.003zm.023-20.531c-5.165.036-9.375 4.134-9.521 9.272-.148 5.136 3.821 9.467 8.976 9.794.56.03 1.123.01 1.68-.054a9.534 9.534 0 0 0 3.794-1.29 9.534 9.534 0 0 0 2.214-1.818l-7.276-5.71a.725.725 0 0 1-.277-.489.722.722 0 0 1 .155-.542l5.83-7.392a9.61 9.61 0 0 0-5.576-1.789v.02l.001-.002z"/><path d="M73.667 38.999a4.443 4.443 0 0 1-2.799-.969l-6.58-4.976a.721.721 0 0 1-.283-.487.696.696 0 0 1 .159-.534l5.31-6.516v-.028c1.033-1.186 2.664-1.723 4.239-1.394 1.572.33 2.822 1.471 3.249 2.962.425 1.493-.048 3.087-1.226 4.14 1.654.862 2.539 2.654 2.188 4.43-.353 1.777-1.86 3.13-3.728 3.348a4.622 4.622 0 0 1-.529.025v-.001z" fill-opacity=".2"/><path d="M68.977 38.999a3.943 3.943 0 0 1-2.6-.969l-6.11-4.976a.734.734 0 0 1-.262-.487.734.734 0 0 1 .147-.534l4.931-6.516v-.028c.96-1.186 2.474-1.723 3.936-1.394 1.46.33 2.62 1.471 3.017 2.962.395 1.493-.044 3.087-1.138 4.14 1.536.862 2.357 2.654 2.031 4.43-.328 1.777-1.727 3.13-3.461 3.348a3.988 3.988 0 0 1-.491.025v-.001zm-7.306-6.636l5.609 4.526a2.546 2.546 0 0 0 2.938.343c.954-.524 1.498-1.602 1.372-2.712-.152-1.305-1.191-2.308-2.46-2.37a.714.714 0 0 1-.658-.636.732.732 0 0 1 .49-.78c1.056-.348 1.785-1.347 1.82-2.494.035-1.148-.634-2.192-1.668-2.605a2.555 2.555 0 0 0-2.929.764l-4.515 5.965.001-.001zM22.839 47.999a9.998 9.998 0 0 0 9.352-6.062 9.996 9.996 0 0 0-2.063-10.95A10 10 0 0 0 13 37.998c-.038 5.476 4.365 9.95 9.84 10h-.001zm0-18.561a8.565 8.565 0 1 1-3.112 16.49A8.566 8.566 0 0 1 14.408 38a8.512 8.512 0 0 1 8.431-8.568v.007z"/><path d="M25.992 43.98c3.247 0 5.888-2.386 5.888-5.32 0-.426-.34-.77-.758-.77a.763.763 0 0 0-.757.77c0 2.088-1.965 3.79-4.38 3.79-2.413 0-4.376-1.702-4.376-3.792 0-.425-.34-.769-.758-.769a.763.763 0 0 0-.758.77c.01 2.934 2.651 5.32 5.898 5.32l.001.001zm6.746 4.744a.46.46 0 0 0-.505 0l-6.25 3.756-6.24-3.802a.46.46 0 0 0-.505 0 .583.583 0 0 0-.238.477v7.2a.573.573 0 0 0 .238.478c.153.102.35.102.504 0l6.251-3.754 6.25 3.754a.458.458 0 0 0 .507 0 .575.575 0 0 0 .236-.476v-7.166a.575.575 0 0 0-.247-.466h-.001zm16.304 1.774c-4.685 0-8.907 2.863-10.701 7.254-1.792 4.392-.8 9.445 2.513 12.806 3.311 3.36 8.294 4.366 12.622 2.547 4.329-1.82 7.15-6.104 7.15-10.858 0-6.49-5.185-11.753-11.583-11.753v.004zm6.843 19.373v-7.966c0-.291-.4-.564-.688-.564h-.994c-.286 0-.353.276-.353.563v9.384c-.506.088-.506.171-.506.246v-12.19c0-.292-.399-.564-.686-.564h-1.485c-.288 0-.353.278-.353.564V72.31c-.505.024-.505.06-.505.075V56.27c0-.291-.4-.564-.687-.564h-1.484c-.288 0-.354.278-.354.564v16.075c-.505 0-.505-.046-.505-.077V59.344c0-.292-.399-.564-.686-.564h-.98c-.29 0-.355.278-.355.564v12.294c-.504-.075-.504-.164-.504-.246v-9.451c0-.312-.398-.599-.686-.599h-.98c-.288 0-.354.292-.354.599v8.13c-.504-.155-.353-.318-.504-.48a.572.572 0 0 0 0-.135v-3.915a.739.739 0 0 0-.686-.613h-1.99a.501.501 0 0 0-.213.072 10.253 10.253 0 0 1-.388-2.762c.122-5.55 4.591-9.986 10.066-9.986 5.472 0 9.943 4.434 10.066 9.986a10.136 10.136 0 0 1-.374 2.705h-1.99c-.287 0-.353.297-.353.614v3.847c-.49.155-.49.31-.49.467zM33.809 15.15a.748.748 0 0 1-.557-.246.775.775 0 0 1-.201-.58l.162-2.32-1.792-1.453a.775.775 0 0 1 .298-1.317l2.227-.56.808-2.177a.752.752 0 1 1 1.353-.134l1.212 1.977 2.292.107c.287.015.541.193.658.46a.775.775 0 0 1-.113.801l-1.479 1.784.607 2.244a.778.778 0 0 1-.227.775.752.752 0 0 1-.785.14l-2.126-.875-1.912 1.282a.759.759 0 0 1-.424.09l-.001.002zm-.238-4.825l.904.733a.774.774 0 0 1 .283.656l-.08 1.173.964-.646a.746.746 0 0 1 .7-.071l1.071.44-.307-1.133a.781.781 0 0 1 .151-.696l.747-.898-1.156-.055a.756.756 0 0 1-.607-.364l-.61-1-.41 1.097a.762.762 0 0 1-.504.476l-1.146.289v-.001zm5.988 18.02a.75.75 0 0 1-.555-.245.77.77 0 0 1-.202-.579l.08-1.154-.903-.741a.776.776 0 0 1-.267-.766.763.763 0 0 1 .56-.582l1.106-.275.398-1.08a.762.762 0 0 1 .636-.495.756.756 0 0 1 .717.36l.602.984 1.137.051a.76.76 0 0 1 .686.466.78.78 0 0 1-.141.826l-.732.87.302 1.117a.777.777 0 0 1-.227.775.747.747 0 0 1-.784.142l-1.055-.434-.948.635a.745.745 0 0 1-.41.128v-.002zm.581-2.925h.167c.197.16.45.406.45.657h-.188a.595.595 0 0 1 .621-.072h-.063a.608.608 0 0 1 .143-.61v.086a.835.835 0 0 1-.611-.448v-.068a.752.752 0 0 1-.507.466l-.015-.01h.003zm33.877 39.276a.746.746 0 0 1-.403-.117l-7.389-4.709a.775.775 0 0 1-.237-1.06.752.752 0 0 1 1.045-.24L74.4 63.28a.773.773 0 0 1 .325.864.763.763 0 0 1-.729.555h.022-.001zm6.22-1.635a.727.727 0 0 1-.282-.04L73.39 60.51a.77.77 0 0 1-.385-.949.757.757 0 0 1 .889-.491l6.606 2.5a.774.774 0 0 1 .487.859.761.761 0 0 1-.75.632h-.001z"/><path d="M72.593 63.314l-.39-4.073a.754.754 0 0 1 .323-.69.779.779 0 0 1 .768-.07c.251.113.42.349.447.62l.39 4.073a.76.76 0 0 1-.692.82l-.082.006a.764.764 0 0 1-.764-.686zm1.466-17.11a.768.768 0 0 1-.822-.705.765.765 0 0 1 .714-.81l9.161-1.29a.782.782 0 0 1 .72.284.752.752 0 0 1 .112.757.78.78 0 0 1-.611.472l-9.176 1.292h-.098zM20.562 19.37a.765.765 0 0 1-.512-.196l-6.844-6.141a.745.745 0 0 1-.008-1.02.777.777 0 0 1 1.033-.1l6.85 6.141a.75.75 0 0 1 .2.831.77.77 0 0 1-.713.487h-.005l-.001-.002zM53.6 15.294a.769.769 0 0 1-.656-.369.75.75 0 0 1-.022-.74l4.157-7.696a.776.776 0 0 1 1.04-.312.752.752 0 0 1 .317 1.024l-4.155 7.695a.771.771 0 0 1-.681.398zm.056-7.018a.769.769 0 0 1-.613-.303.745.745 0 0 1-.124-.666L54.932.544a.76.76 0 0 1 .555-.523.78.78 0 0 1 .738.21c.19.198.259.478.183.737L54.394 7.73a.769.769 0 0 1-.738.547z"/><path d="M54.225 8.231a.775.775 0 0 1-.698-.33.763.763 0 0 1-.065-.766.77.77 0 0 1 .636-.437l4.104-.687a.78.78 0 0 1 .256 1.536l-4.105.682h-.129l.001.002zM64.908 53.48a.765.765 0 0 1-.771-.822l.081-1.152-.918-.741a.767.767 0 0 1 .298-1.345l1.123-.278.405-1.077a.772.772 0 0 1 .647-.494.776.776 0 0 1 .73.363l.609.981 1.155.051a.77.77 0 0 1 .668.459.763.763 0 0 1-.115.8l-.743.883.307 1.116c.078.28-.01.58-.228.773a.773.773 0 0 1-.797.142l-1.072-.435-.966.635a.785.785 0 0 1-.414.143v-.002zm.588-2.919h.169c.2.16.457.405.457.655h-.19a.616.616 0 0 1 .633-.072h-.062a.594.594 0 0 1 .143-.608v.086a.847.847 0 0 1-.62-.448v-.067a.757.757 0 0 1-.514.465l-.015-.011h-.001zM45.36 47.845h-7.3a.77.77 0 1 1-.668-1.152l3.652-6.304a.769.769 0 0 1 .668-.384c.276 0 .53.145.668.384l3.647 6.285a.767.767 0 0 1-.668 1.15v.021h.001zm-5.966-1.536h4.616l-2.318-4.003-2.297 4.004h-.001zM12.002 66.98a.772.772 0 0 1-.74-.55.766.766 0 0 1 .319-.864l7.438-4.8a.768.768 0 1 1 .837 1.289l-7.44 4.802a.77.77 0 0 1-.415.122l.001.001zM10.769 74a.769.769 0 0 1-.54-1.314l5.105-5.014a.774.774 0 0 1 1.09.009c.3.302.296.79-.007 1.088l-5.107 5.011a.763.763 0 0 1-.542.221v-.001z"/><path d="M17.108 68.225c-.086 0-1.413-.016-1.497-.046l-3.935-1.371a.756.756 0 0 1-.472-.97.778.778 0 0 1 .987-.461l3.935 1.37a.756.756 0 0 1-.258 1.471l1.24.007zm10.835.774a.769.769 0 0 1-.686-.443l-.515-1.045-1.148-.19a.77.77 0 0 1-.612-.533.75.75 0 0 1 .216-.773l.87-.779-.176-1.154a.751.751 0 0 1 .325-.733.784.784 0 0 1 .813-.04l1.031.556 1.028-.507a.789.789 0 0 1 .822.084.75.75 0 0 1 .275.76l-.221 1.125.814.815c.206.205.275.51.178.78a.77.77 0 0 1-.636.505l-1.156.137-.515 1.01a.787.787 0 0 1-.71.426l.003-.001zm-.516-3.035c.252 0 .463.258.571.507v-.027a.785.785 0 0 1 .595-.46v.07a.678.678 0 0 1-.205-.644v.053c-.228.11-.517 0-.723 0a.627.627 0 0 1-.238.596v-.095zM.828 55.482a.77.77 0 0 1-.826-.706.768.768 0 0 1 .718-.813l9.21-1.294a.788.788 0 0 1 .725.285.755.755 0 0 1 .11.76.78.78 0 0 1-.616.473L.928 55.482h-.1zM9.585 30.85a.775.775 0 0 1-.568-.243.75.75 0 0 1-.205-.572l.083-1.137-.922-.734a.755.755 0 0 1 .298-1.332l1.128-.274.407-1.066a.774.774 0 0 1 .649-.489.781.781 0 0 1 .732.357l.611.97 1.16.054c.305.002.58.182.7.458a.75.75 0 0 1-.144.815l-.746.86.309 1.103a.749.749 0 0 1-.23.766.783.783 0 0 1-.8.139l-1.076-.43-.97.628a.777.777 0 0 1-.417.127h.001zm.592-2.888h.17c.201.156.458.399.458.647h-.19a.624.624 0 0 1 .634-.07h-.062a.579.579 0 0 1 .143-.601v.084a.85.85 0 0 1-.623-.443v-.066a.756.756 0 0 1-.515.46l-.016-.01h.001z"/></g></svg>