<svg width="90" viewBox="0 0 80 29" xmlns="http://www.w3.org/2000/svg" fill="#333"><title>hellomerci</title><path d="M10.244 1.742c4.84 0 8.775 3.936 8.775 8.774 0 4.84-3.94 8.776-8.78 8.776S1.46 15.356 1.46 10.516c0-4.838 3.935-8.774 8.773-8.774m0 19.02c5.65 0 10.245-4.596 10.245-10.246C20.49 4.868 15.893.272 10.243.272 4.597.272 0 4.868 0 10.516c0 5.65 4.596 10.246 10.244 10.246m0-4.712c3.254 0 5.902-2.322 5.902-5.176 0-.41-.34-.743-.757-.743s-.76.34-.76.75c0 2.035-1.97 3.688-4.39 3.688s-4.39-1.652-4.39-3.685c0-.41-.34-.743-.76-.743s-.756.333-.756.743c0 2.854 2.647 5.175 5.9 5.175M17 20.67c-.15-.1-.335-.11-.49-.025l-6.267 3.652-6.268-3.652c-.156-.085-.343-.076-.492.024-.15.1-.24.27-.24.46v7c0 .19.09.364.24.463.15.1.336.11.492.023l6.268-3.65 6.267 3.65c.07.04.15.06.227.06.092 0 .184-.027.266-.08.148-.1.24-.277.24-.466v-7c0-.19-.092-.364-.24-.464m8.04-18.606c0-.925.54-1.407 1.36-1.407.82 0 1.36.482 1.36 1.407v3.873h.038C28.34 5.2 29.3 4.45 30.84 4.45c1.64 0 3.43.848 3.43 3.7v5.473c0 .75-.292 1.406-1.36 1.406-1.06 0-1.36-.66-1.36-1.41V8.71c0-1.136-.54-1.946-1.71-1.946-.95 0-2.07.81-2.07 2.216v4.645c0 .75-.3 1.406-1.36 1.406-1.064 0-1.36-.652-1.36-1.41V2.06zm18.53 6.59c-.15-1.29-1.08-2.235-2.292-2.235-1.36 0-2.18.867-2.48 2.236h4.78zm-4.77 1.62c0 1.483.93 2.562 2.516 2.562 2.05 0 2.05-1.387 3.15-1.387.65 0 1.12.578 1.12 1.098 0 1.696-2.63 2.486-4.27 2.486-3.81 0-5.24-2.66-5.24-5.11 0-3.28 1.92-5.47 5.14-5.47 3.133 0 4.922 2.29 4.922 4.6 0 .96-.28 1.21-1.193 1.21H38.8zm9.19-8.21c0-.925.54-1.407 1.36-1.407.82 0 1.36.482 1.36 1.407v11.563c0 .925-.54 1.406-1.36 1.406-.82 0-1.36-.49-1.36-1.41V2.06zm5.18 0c0-.925.54-1.407 1.363-1.407.82 0 1.36.482 1.36 1.407v11.563c0 .925-.54 1.406-1.36 1.406-.82 0-1.362-.49-1.362-1.41V2.06zm9.66 10.888c1.62 0 2.31-1.503 2.31-3.218 0-1.83-.726-3.2-2.31-3.2-1.585 0-2.313 1.37-2.313 3.2 0 1.715.69 3.218 2.315 3.218m0-8.498c3.282 0 5.034 2.312 5.034 5.28 0 2.813-1.33 5.3-5.04 5.3s-5.03-2.488-5.03-5.3c0-2.968 1.75-5.28 5.03-5.28M25.04 19.698c0-.848.486-1.407 1.288-1.407.8 0 1.285.56 1.285 1.41v.37h.037c.71-1.115 1.902-1.77 3.282-1.77.932 0 2.106.443 2.61 1.773.764-1.1 1.734-1.773 3.206-1.773 1.89 0 3.4.887 3.4 3.41v5.76c0 .75-.3 1.408-1.36 1.408s-1.36-.654-1.36-1.406v-5.05c0-1-.43-1.81-1.493-1.81-1.043 0-1.975.867-1.975 2.177v4.682c0 .75-.3 1.407-1.36 1.407-1.064 0-1.362-.655-1.362-1.407v-5.05c0-1-.43-1.81-1.49-1.81-1.045 0-1.978.868-1.978 2.178v4.685c0 .757-.3 1.41-1.36 1.41-1.065 0-1.36-.652-1.36-1.404v-7.77zm24.348 2.794c-.15-1.29-1.08-2.235-2.293-2.235-1.36 0-2.18.867-2.48 2.235h4.773zm-4.77 1.62c0 1.483.93 2.562 2.515 2.562 2.05 0 2.05-1.388 3.15-1.388.653 0 1.12.58 1.12 1.1 0 1.695-2.63 2.485-4.27 2.485-3.804 0-5.24-2.66-5.24-5.1 0-3.274 1.92-5.47 5.146-5.47 3.133 0 4.922 2.294 4.922 4.606 0 .963-.28 1.214-1.193 1.214h-6.15zm9.244-4.51c0-.848.54-1.31 1.23-1.31s1.23.462 1.23 1.31v1.08h.038c.318-1.177.933-2.39 2.257-2.39.856 0 1.49.578 1.49 1.368 0 1.04-.67 1.406-1.34 1.406h-.487c-1.1 0-1.696.79-1.696 3.122v3.276c0 .75-.3 1.407-1.362 1.407-1.063 0-1.36-.65-1.36-1.4v-7.86zm11.8-1.312c2.277 0 3.973 1.33 3.973 2.64 0 .81-.578 1.216-1.268 1.216-1.287 0-.82-1.658-2.778-1.658-1.064 0-2.313.752-2.313 3.295 0 1.754.808 2.89 2.3 2.89 1.9 0 1.49-1.81 2.926-1.81.69 0 1.138.52 1.138 1.08 0 1.232-1.34 2.928-4.14 2.928-3.353 0-4.94-2.14-4.94-5.08 0-3.237 1.774-5.492 5.11-5.492m5.57 1.406c0-.75.3-1.407 1.364-1.407s1.36.66 1.36 1.41v7.766c0 .75-.297 1.407-1.36 1.407-1.063 0-1.36-.655-1.36-1.407V19.7zm1.364-5.28c.783 0 1.417.655 1.417 1.464 0 .81-.636 1.465-1.42 1.465-.782 0-1.416-.655-1.416-1.465s.634-1.464 1.417-1.464zm5.092-2.91c-1.086 0-1.97.884-1.97 1.97 0 1.083.885 1.966 1.97 1.966 1.084 0 1.966-.884 1.966-1.968 0-1.085-.88-1.967-1.964-1.967m0 4.227c-1.244 0-2.257-1.014-2.257-2.26 0-1.246 1.014-2.26 2.26-2.26s2.26 1.014 2.26 2.26c0 1.245-1.015 2.258-2.26 2.258 M77.285 12.64v.62h.52c.105 0 .182-.01.234-.036.09-.044.13-.13.13-.26 0-.142-.046-.236-.134-.284-.05-.027-.124-.04-.224-.04h-.536zm1-.343c.086.036.158.09.218.16.05.06.088.125.116.196.02.07.04.153.04.244 0 .11-.03.218-.09.324-.056.11-.147.19-.275.23.107.048.182.11.227.188.044.08.066.2.066.363v.156c0 .106.005.177.014.215.013.06.043.104.09.13v.06h-.534l-.03-.125c-.01-.065-.02-.132-.02-.2l-.002-.215c0-.15-.028-.25-.077-.3-.05-.05-.14-.073-.274-.073h-.474v.907h-.47V12.24h1.11c.157.003.28.023.364.06z"/></svg>
