<svg width="651" height="113" viewBox="0 0 651 113" xmlns="http://www.w3.org/2000/svg"><title>lendopolis</title><g fill="none" fill-rule="evenodd"><circle fill="#FFF" cx="56.8" cy="56.8" r="53.2"/><path d="M56.4 113c30.9 0 56.1-25.2 56.1-56.1 0-13.3-4.8-26.3-13.4-36.4C92 12.2 82.8 6.2 72.4 3.1c-10.3-3-21.6-3-31.9 0-10.4 3.1-19.6 9.1-26.7 17.4C5.1 30.6.4 43.6.4 56.9c0 30.9 25.1 56.1 56 56.1zM10 78.6C6.9 72 5.2 64.7 5.2 56.9 5.2 45 9.4 33.4 17 24.2c.2-.2.3-.4.5-.6 6.4-7.5 14.7-12.9 24-15.8.1 0 .2-.1.4-.1 9.4-2.8 19.7-2.8 29.1 0 .1 0 .2.1.4.1 9.3 2.8 17.7 8.3 24 15.8.2.2.3.4.5.6 7.6 9.2 11.8 20.7 11.8 32.7 0 7.7-1.7 15.1-4.8 21.7-.2.3-.3.6-.5 1H85.2v19.8c-.3.2-.6.4-1 .6V60H73.8v45.2c-.3.1-.6.2-1 .3V47H62.4v60.7c-.3 0-.6.1-1 .1V34.2H51.3v73.7c-.3 0-.6-.1-1-.1V47H40v58.4c-.3-.1-.6-.2-1-.3V59.9H28.6v40c-.3-.2-.7-.4-1-.6V79.5H10.4c-.1-.3-.2-.6-.4-.9z" fill="#0F1F29"/><path d="M27.7 58.9h10.7L17 24.2C9.4 33.4 5.2 44.9 5.2 56.9c0 7.7 1.7 15.1 4.8 21.7h17.7V58.9zM74.4 58.9h10.7v19.6h17.7c3.1-6.6 4.8-13.9 4.8-21.7 0-11.9-4.2-23.5-11.8-32.7L74.4 58.9zM50.4 46.1V33.2h12v12.9h3.9l5-38.2c-.1 0-.2-.1-.4-.1C61.5 5 51.2 5 41.8 7.8c-.1 0-.2.1-.4.1l5 38.2h4z" fill="#CA9836"/><g><path d="M330.81 72.54c.01 0 .01-.008.01-.008.017-.015.028-.027.04-.04l-.04.04s0 .008-.01.008M330.473 72.855l.008-.012v.004l-.007.008" fill="#FFF"/><path d="M626.74 64.74l-.016.004c.06.41.15.81.253 1.207-.096-.408-.18-.817-.236-1.21" fill="#000102"/><path d="M645.026 64.325c0-5.268-4.127-7.057-8.313-8.975l-2.75-1.19c-5.26-2.39-9.805-5.083-9.805-11.54 0-3.306 1.33-6.04 3.43-8.02-.02.02-.04.03-.06.043-.015.014-.026.028-.04.04-.016.02-.038.036-.057.052-.014.017-.027.027-.04.04-.02.017-.04.034-.053.05-.015.014-.036.026-.052.045-.015.015-.027.03-.044.04l-.05.046c-.013.015-.03.03-.045.048-.017.012-.04.027-.053.043-.015.017-.03.03-.045.042-.017.018-.035.03-.05.05-.016.015-.032.023-.05.04-.014.02-.032.03-.047.048-.02.013-.035.028-.05.043-.01.015-.03.03-.043.046-.02.016-.038.03-.052.048-.014.013-.037.03-.047.04-.022.02-.035.03-.05.047-.016.014-.035.028-.052.048-.015.012-.03.026-.048.043-.014.015-.027.03-.046.044l-.05.047c-.02.016-.034.036-.048.048-.015.014-.03.03-.05.04-.013.015-.03.03-.045.045-.02.015-.036.03-.052.045-.02.012-.027.032-.045.042-.017.018-.037.035-.05.048-.015.018-.035.032-.05.05-.018.013-.03.025-.047.037l-.052.05c-.015.013-.034.034-.052.048-.013.013-.026.02-.04.04-.016.014-.038.03-.053.046-.01.012-.03.027-.044.043-.02.016-.037.032-.052.04-.016.02-.032.033-.05.05-.017.016-.032.03-.045.045-.02.014-.035.03-.055.047-.013.012-.03.03-.05.043-.01.015-.033.027-.043.044l-.05.046c-.017.015-.034.024-.044.04-.02.016-.038.033-.054.048l-.047.043-.05.045-.045.045c-.016.02-.035.034-.054.05-.013.01-.027.024-.04.032-.02.02-.042.038-.058.06-.015.01-.027.025-.042.04-.017.01-.035.03-.053.042l-.047.043c-.017.02-.034.03-.045.044-.02.02-.035.03-.05.046-.013.02-.032.03-.05.043l-.046.05c-.02.013-.04.03-.054.044-.013.013-.028.027-.05.045-.013.014-.03.026-.045.044-.015.01-.032.03-.046.042-.014.015-.033.028-.055.048-.01.014-.03.032-.052.047-.008.01-.027.026-.04.04-.017.018-.036.033-.05.05-.017.012-.032.026-.05.04-.01.014-.03.034-.046.045-.017.023-.032.032-.052.048-.015.012-.036.03-.05.047-.012.013-.03.026-.042.038-.016.02-.035.034-.052.046-.017.02-.034.03-.05.046-.015.014-.03.03-.05.045-.02.015-.024.028-.047.048-.013.01-.035.027-.044.04l-.054.048c-.016.01-.034.03-.042.043-.022.017-.04.03-.057.05-.01.01-.025.028-.044.037-.016.018-.03.034-.05.044-.016.02-.034.033-.048.05-.01.013-.03.03-.047.046-.018.015-.035.03-.05.045-.016.016-.03.03-.046.04-.018.018-.033.03-.046.048-.022.017-.03.03-.052.042-.014.018-.03.032-.047.053-.023.01-.038.027-.05.038-.02.016-.03.03-.048.045-.017.02-.036.03-.052.048-.013.016-.03.03-.043.042-.017.02-.035.033-.054.044-.015.018-.032.035-.046.047-.018.015-.034.027-.048.047-.018.014-.038.03-.053.044-.012.016-.032.032-.044.044-.02.018-.033.033-.05.047-.018.017-.036.035-.053.048-.012.01-.03.03-.043.04-.02.017-.034.035-.05.05-2.096 1.973-3.41 4.712-3.41 8.016 0 6.458 4.54 9.15 9.802 11.536l2.752 1.2c4.184 1.915 8.314 3.703 8.314 8.966 0 1.293-.287 2.492-.794 3.567 3.242-1.302 5.684-4.315 5.684-8.088" fill="#0F1F29"/><path d="M621.826 66.123l-4.893 4.52c1.435 6.994 6.817 11.663 14.053 11.663 3.712 0 7.097-1.366 9.626-3.633.03-.032.066-.063.096-.098l.05-.042c.01-.015.03-.027.046-.045.018-.013.035-.028.05-.043.03-.032.063-.064.1-.095.013-.013.03-.026.042-.04.016-.018.035-.03.05-.042.04-.032.065-.065.103-.1.013-.012.03-.024.036-.038.02-.015.04-.03.057-.047.02-.02.033-.027.046-.043.018-.02.033-.03.052-.045.014-.017.028-.03.044-.045.015-.013.033-.032.054-.044.015-.015.03-.035.048-.048.004-.005.013-.012.022-.02.007-.007.014-.012.02-.025.02-.01.033-.027.052-.04.015-.017.03-.03.047-.047.015-.017.033-.03.05-.047.028-.027.062-.06.096-.087.016-.01.037-.034.05-.05.017-.012.032-.03.052-.04.01-.02.027-.03.047-.05.015-.013.028-.026.044-.038.015-.017.027-.032.046-.044.02-.016.036-.038.054-.05.016-.015.032-.026.047-.042.016-.014.032-.034.048-.046.016-.017.035-.036.05-.048.017-.01.03-.03.043-.038.018-.016.036-.026.05-.046.016-.015.034-.034.05-.045.02-.013.035-.035.055-.052.015-.014.026-.025.044-.04.014-.017.032-.028.048-.043.015-.02.03-.03.044-.043.02-.017.034-.032.052-.055.016-.006.032-.023.05-.04.017-.013.032-.034.05-.042.03-.03.06-.066.097-.092.014-.018.024-.025.044-.04.015-.013.03-.036.05-.047.015-.016.032-.03.05-.044.013-.015.026-.033.044-.044.016-.01.036-.033.05-.045.02-.016.03-.032.05-.047.015-.013.027-.03.046-.04.032-.028.068-.065.1-.098.034-.027.07-.054.094-.09.022-.01.034-.023.053-.042.013-.007.027-.03.046-.04.015-.017.03-.03.047-.046.02-.01.033-.032.048-.044.036-.035.07-.063.103-.092.015-.02.03-.028.047-.05.022-.012.03-.026.045-.04.018-.012.03-.024.053-.042.016-.02.028-.03.044-.045.038-.028.067-.06.102-.095.015-.012.032-.024.047-.044.017-.008.027-.024.045-.04.017-.013.036-.028.054-.05.016-.006.028-.026.044-.04.035-.03.066-.06.098-.09.017-.02.033-.032.048-.048.02-.013.035-.028.05-.043.016-.016.035-.026.05-.04.017-.023.03-.033.045-.048.022-.016.035-.03.052-.046.015-.017.034-.028.047-.046.02-.01.035-.028.05-.04.013-.016.03-.03.046-.046.03-.027.062-.06.1-.092.012-.012.03-.035.047-.048.018-.01.03-.025.045-.04.02-.014.038-.032.058-.047.026-.03.06-.06.093-.09.016-.012.034-.028.043-.043.018-.014.034-.03.055-.04.014-.017.03-.033.05-.048.013-.016.03-.033.044-.046.02-.015.035-.034.055-.048.014-.013.028-.03.04-.044.02-.014.034-.03.046-.042.04-.03.07-.06.1-.087.02-.017.037-.04.053-.052.06-.052.095-.115.154-.168-2.534 2.32-5.94 3.72-9.7 3.72-7.23 0-12.606-4.66-14.048-11.657M644.43 40.702c-1.796-3.112-3.946-4.904-7.772-4.904-3.254 0-6.12 1.907-7.095 4.83.704-.195 1.442-.298 2.2-.298 3.825 0 5.98 1.786 7.773 4.9l4.005-2.575 4.908-4.524c-.206-.384-.434-.726-.665-1.05.224.344.456.68.658 1.05l-4.01 2.572zM165.362 77l-.01-.212V77h-17.464V31.92L143 36.44v45.088h17.462M188.254 77V31.918l-4.892 4.52v45.088h23.382l4.9-4.526-.01-.225V77" fill="#0F1F29"/><path fill="#0F1F29" d="M193.274 54.633v4.527h12.93l4.905-4.527-.014-.252v.253M193.274 36.577V41.1h13.47l4.9-4.52-.01-.223v.22M238.418 77V30.013l-4.89 4.515v46.998h5.026L243.456 77l-.012-.333V77M273.584 31.915l-4.896 4.523v25.268l4.896 5.128"/><path fill="#000102" d="M238.43 30l-.007.008.17.177"/><path fill="#0F1F29" d="M278.607 78.865v.17l-35.163-36.777v9.64l30.268 31.663 4.902-4.526"/><path d="M330.48 72.844c.017-.014.03-.028.048-.042-.02.014-.03.028-.048.042" fill="#000102"/><path d="M314.302 77h-8.37V31.918l-4.893 4.52v45.088h8.37c7.052 0 12.44-.9 17.82-5.676.013-.02.03-.032.043-.046 0 0 .006 0 .006-.005.01-.006.02-.023.032-.025.004-.01.01-.014.015-.02.016-.012.026-.022.037-.033.004 0 .01-.008.01-.01.015-.014.028-.023.04-.036.003-.007.01-.007.01-.007.01-.017.027-.03.04-.04.002-.004.006-.01.01-.01.01-.01.024-.023.033-.034.01-.003.01-.003.014-.008.015-.015.026-.02.038-.04l.008-.007c.017-.013.027-.016.033-.028.007-.003.012-.013.018-.016.01-.008.023-.022.04-.035.003-.002.008-.002.008-.01.017-.008.025-.023.037-.037.004 0 .01-.003.014-.007.012-.005.024-.022.038-.034.002-.005.004-.01.01-.01.01-.008.02-.02.033-.03.005-.004.012-.008.012-.012.02-.014.033-.03.045-.043h.01c.006-.012.02-.028.028-.033.01 0 .013-.012.016-.014.016-.014.023-.024.038-.038 0 0 .007-.005.01-.01.012-.006.022-.02.032-.03.005-.005.014-.008.018-.016.015-.008.03-.027.044-.043.014-.01.027-.02.038-.03.004-.004.01-.007.01-.012.02-.013.03-.026.04-.035.004-.004.006-.008.012-.01.015-.01.023-.022.033-.028 0-.01.013-.013.018-.02.01-.01.02-.023.037-.035.004 0 .008-.002.008-.006.015-.01.023-.022.034-.032.005-.007.01-.012.018-.012.012-.015.027-.032.046-.05.012-.007.022-.016.036-.027.003-.003.007-.01.014-.014.013-.007.025-.023.04-.032 0-.006.006-.013.006-.013.013-.008.02-.022.034-.03.005-.007.008-.008.017-.013.012-.01.024-.028.037-.04.005-.002.007-.002.007-.006.017-.012.026-.023.044-.037l.007-.007c.016-.016.028-.03.045-.045h.005c.012-.01.022-.022.032-.035l.018-.01c.012-.012.026-.025.034-.037.008-.004.008-.007.015-.007.007-.015.018-.025.03-.032.005-.005.014-.013.017-.02.012-.006.024-.017.037-.03.005-.005.007-.008.013-.01.013-.01.022-.022.033-.03l.014-.015c.016-.012.03-.03.05-.044l.033-.032.013-.018c.015-.014.023-.022.035-.03l.016-.013c.013-.01.023-.025.035-.037.01 0 .01-.002.015-.007.014-.013.03-.026.04-.04.005 0 .005-.002.007-.004.016-.015.027-.024.04-.04l.01-.01c.01-.005.024-.02.03-.027.01-.004.012-.01.016-.012.012-.007.025-.02.036-.032l.018-.016c.008-.01.023-.02.037-.034.002-.005.005-.005.007-.01.014-.01.026-.025.038-.032.005-.005.008-.006.013-.013l.04-.04h.007c.014-.01.025-.03.037-.04.002-.005.01-.005.01-.005.013-.017.03-.032.043-.04l.007-.01c.012-.008.02-.022.03-.03.008-.005.01-.01.02-.016.008-.008.023-.015.03-.028.005-.006.01-.013.018-.013.017-.012.026-.02.04-.036 0-.004.003-.007.01-.01.01-.005.023-.023.032-.036l.01-.005c.018-.013.028-.03.04-.038.006 0 .007 0 .013-.01.013-.012.025-.02.037-.035.004-.004.006-.005.012-.008.01-.016.023-.027.04-.038l.007-.008c.016-.012.02-.023.036-.03.005-.004.006-.007.013-.017.014-.007.026-.026.038-.037.006 0 .008 0 .01-.007.014-.015.03-.03.042-.04 0-.002 0-.005.007-.005.014-.01.027-.02.037-.034.006-.004.006-.007.01-.007.013-.016.025-.028.04-.04 0 0 .01-.005.01-.008.013-.013.022-.02.035-.028 0-.005.01-.013.013-.02.01-.01.02-.02.032-.028.008-.005.01-.007.015-.013.014-.01.03-.022.038-.034.005-.01.007-.01.012-.012.013-.016.028-.023.038-.038.004-.003.008-.005.01-.01.012-.007.022-.018.037-.027 0-.006.007-.014.013-.015.018-.014.028-.034.046-.045h.003c.008-.01.014-.016.026-.027.006-.01.016-.01.02-.018.015-.01.027-.026.04-.034.004-.003.006-.007.006-.007v-.003c.017-.014.03-.028.05-.042v-.005c.014-.01.028-.022.037-.035.005 0 .005-.007.01-.007.012-.013.023-.02.034-.03.003-.01.014-.01.018-.015.013-.016.026-.02.036-.038.008-.002.008-.002.01-.01.014-.008.026-.022.036-.027.002-.003.01-.008.015-.017.014-.01.024-.024.043-.037l.006-.006c.01-.014.024-.022.037-.034.01 0 .01-.008.01-.008.017-.014.028-.027.04-.04.004-.002.008-.003.01-.007.013-.007.023-.018.036-.03.004-.005.008-.013.015-.017.013-.013.023-.025.038-.035 0 0 .004 0 .015-.008.006-.01.015-.02.028-.03.008-.008.012-.012.018-.014l.043-.04.005-.002.04-.04c.006 0 .006-.004.008-.007.015-.01.024-.025.036-.034.005-.01.01-.01.01-.01.014-.005.026-.025.035-.03l.015-.013c.016-.014.028-.023.04-.038.006-.004.007-.004.012-.01.01-.01.022-.025.034-.032.005-.005.005-.007.005-.007l.046-.04c.004-.003.01-.003.01-.014.012-.006.027-.02.04-.03.004 0 .008-.007.008-.01.015-.013.022-.022.04-.033.004-.008.006-.01.006-.013.015-.01.026-.02.037-.028.007-.008.01-.015.012-.017l.047-.042s.002-.005.006-.005c.01-.01.02-.02.032-.027.005-.008.007-.012.016-.016.013-.01.023-.027.037-.036.002-.005.006-.01.01-.01.014-.008.025-.02.04-.037.004 0 .006 0 .01-.004.013-.013.028-.026.036-.038.006-.005.008-.005.01-.01.015-.01.023-.023.032-.033.01-.005.013-.005.017-.014.017-.012.034-.025.044-.037l.008-.004c.013-.014.02-.023.032-.032.003-.005.007-.012.015-.012.017-.014.025-.027.037-.04.005 0 .007-.004.014-.012l.037-.03c.003-.004.008-.008.014-.01.014-.013.024-.03.04-.04.002 0 .002 0 .005-.006.012-.013.025-.02.033-.032.007-.003.01-.007.015-.007.012-.016.028-.028.04-.04.006-.004.012-.007.012-.01.442-.393.847-.807 1.23-1.227-.4.417-.8.834-1.243 1.227-5.384 4.784-10.767 5.68-17.82 5.68" fill="#0F1F29"/><path d="M328.595 40.94c-4.13-3.65-8.672-4.363-13.993-4.363h-3.652v4.74l.015-.2c4.784.12 8.94.99 12.737 4.352 3.887 3.406 5.86 8.367 5.86 13.51 0 3.92-1.17 7.65-3.443 10.747.926-.568 1.833-1.227 2.713-2.054 3.707-3.47 5.618-8.196 5.618-13.217 0-5.143-1.968-10.11-5.855-13.517M385.636 35.798c-6.054 0-11.336 2.902-14.686 7.347 2.825-1.783 6.173-2.815 9.795-2.815 10.347 0 18.48 8.426 18.48 18.65 0 4.187-1.41 8.095-3.77 11.234 5.2-3.33 8.662-9.186 8.662-15.758 0-10.226-8.134-18.658-18.48-18.658" fill="#0F1F29"/><path d="M362.136 54.515c0-7.053 3.187-13.355 8.157-17.643-.145.123-.29.235-.434.366l-.05.05-.043.04c-.022.017-.038.037-.056.054-.012.007-.03.023-.046.035-.015.013-.033.03-.05.052-.013.01-.03.025-.042.037-.02.015-.036.032-.05.053-.016.01-.037.026-.055.04-.017.015-.028.034-.043.046-.017.014-.03.027-.045.038-.02.018-.04.04-.064.057-.01.01-.023.02-.034.038-.017.01-.037.028-.056.047-.017.017-.035.028-.048.045-.015.014-.03.03-.046.04-.016.014-.033.034-.048.044-.02.02-.036.037-.055.053-.017.01-.028.027-.04.037l-.056.05c-.014.015-.027.028-.043.042-.018.01-.03.025-.046.042-.017.016-.04.035-.058.05-.015.017-.03.033-.048.046-.01.013-.025.022-.043.035-.017.022-.034.036-.05.054l-.05.042-.046.048c-.016.007-.033.03-.05.04-.016.016-.033.03-.046.048-.02.013-.035.026-.048.037-.018.015-.036.036-.052.05-.016.013-.034.03-.05.048l-.048.042c-.01.016-.027.025-.048.044-.015.016-.03.028-.05.048-.014.014-.032.025-.045.04-.017.018-.034.032-.05.05-.015.013-.034.025-.046.04-.02.018-.033.028-.05.05-.017.015-.033.023-.052.043-.015.017-.03.026-.043.042-.02.015-.037.033-.054.05-.016.012-.03.027-.044.042-.02.012-.035.03-.05.044-.02.013-.03.03-.046.043-.017.014-.033.027-.052.045-.015.017-.03.034-.05.047-.013.014-.032.03-.045.045-.018.012-.03.026-.047.04-.02.015-.035.03-.05.047-.017.015-.033.035-.05.045-.015.02-.034.032-.047.047-.017.013-.033.028-.05.043-.017.015-.03.03-.046.047-.016.007-.032.023-.048.036-.02.02-.032.03-.05.05-.02.017-.032.03-.053.05-.013.01-.03.026-.045.04-.018.01-.038.036-.052.048l-.045.044c-.018.017-.03.03-.05.042-.016.013-.028.03-.046.05-.02.004-.036.027-.052.042-.016.015-.032.032-.05.04-.014.018-.028.04-.046.05-.018.01-.033.03-.05.043-.018.015-.034.03-.05.046l-.045.042c-.018.018-.034.03-.05.044-.015.02-.033.03-.048.046-.017.01-.034.028-.053.045-.017.013-.032.032-.044.047-.02.016-.036.025-.053.04-.014.017-.03.033-.048.044l-.046.05c-.015.014-.03.023-.05.042-.015.015-.034.032-.047.047-.02.012-.032.03-.055.048l-.042.04c-.017.015-.035.03-.052.05-.012.01-.028.025-.045.038-.02.014-.034.032-.048.047-.018.017-.035.034-.057.047-.01.016-.03.033-.044.046-.018.012-.03.028-.045.038-.02.02-.035.03-.047.053-.017.013-.036.024-.048.04-.022.015-.036.033-.055.045-.018.016-.033.034-.05.047-.016.013-.027.03-.044.038-.016.018-.032.035-.05.05-.02.016-.033.034-.05.045l-.043.038c-.017.022-.032.036-.05.05-.02.018-.034.033-.05.046-.012.014-.03.027-.046.038-.015.02-.036.036-.05.054-.016.012-.032.027-.042.04-.02.018-.04.03-.053.045-.02.015-.036.032-.056.047-4.747 4.278-7.757 10.453-7.757 17.317 0 12.98 10.646 23.266 23.502 23.266 6.05 0 11.607-2.28 15.798-6.04.016-.02.03-.03.042-.043.018-.013.033-.027.046-.042.023-.016.04-.03.054-.05.015-.014.03-.023.048-.04.018-.014.034-.027.05-.045.015-.014.03-.03.047-.042l.05-.047c.015-.018.03-.027.043-.043.022-.018.035-.034.054-.05.018-.01.03-.03.046-.04.017-.02.036-.037.052-.048.016-.016.03-.038.048-.045l.046-.04c.017-.02.03-.036.05-.05.014-.014.026-.03.05-.043.012-.014.028-.028.043-.048.02-.015.035-.033.052-.04.015-.02.03-.032.05-.05.02-.01.028-.03.046-.043.02-.013.034-.026.05-.043.015-.017.027-.027.044-.047.022-.012.036-.03.058-.047.01-.013.025-.028.045-.043.014-.015.034-.03.045-.05.017-.008.033-.02.044-.034.023-.02.036-.034.052-.05.022-.016.037-.03.054-.045.018-.017.032-.03.044-.044.018-.017.035-.028.048-.044.022-.013.032-.028.05-.046.016-.013.036-.034.05-.046.02-.015.032-.03.048-.046.017-.01.034-.027.05-.043.014-.014.03-.032.05-.047.016-.018.03-.026.044-.042.02-.013.032-.028.052-.045.013-.015.03-.03.045-.04.018-.02.035-.033.053-.05.016-.017.03-.032.053-.045.013-.012.026-.028.042-.042.012-.016.03-.026.042-.043l.06-.055c.015-.012.028-.028.04-.037.02-.02.032-.032.054-.045.013-.014.028-.028.045-.048.016-.01.035-.034.054-.045.013-.012.026-.03.044-.037.013-.017.036-.032.052-.05.018-.013.032-.033.05-.05.01-.014.028-.023.04-.038l.053-.05.052-.043c.014-.014.026-.028.04-.04.02-.016.033-.032.056-.05.012-.015.032-.023.044-.043.017-.016.035-.032.05-.048.018-.01.033-.025.048-.04l.052-.045c.013-.016.03-.032.047-.047.017-.016.035-.024.044-.042l.052-.045c.018-.01.034-.032.052-.045.017-.015.03-.034.045-.044.02-.016.032-.032.048-.044.014-.02.03-.03.05-.048l.047-.038.045-.047c.023-.02.034-.035.057-.053l.04-.04c.02-.01.036-.032.055-.05l.047-.04c.015-.015.032-.035.045-.042.017-.02.037-.036.052-.05.017-.017.033-.03.045-.04.017-.015.034-.033.047-.048.02-.015.03-.03.05-.044.016-.016.03-.033.05-.047.018-.015.033-.032.05-.046.014-.015.03-.027.048-.042.018-.013.03-.033.047-.045.017-.013.036-.028.05-.046.02-.018.034-.027.044-.043.02-.013.03-.028.047-.042.02-.012.035-.034.057-.05.015-.012.032-.024.046-.04.015-.02.033-.037.046-.05.016-.008.038-.027.045-.04.025-.014.034-.034.056-.054.016-.007.035-.022.045-.04.02-.014.032-.027.05-.042.017-.016.032-.025.047-.047.016-.017.036-.03.053-.046.013-.013.032-.028.04-.044.023-.014.037-.026.054-.042.014-.015.028-.03.048-.044.015-.013.03-.034.048-.044.018-.018.034-.035.057-.05.012-.014.025-.03.043-.04.016-.018.03-.034.048-.046l.047-.048c.224-.197.43-.405.637-.614-4.252 4.095-10.05 6.608-16.394 6.608-12.856 0-23.5-10.29-23.5-23.265" fill="#0F1F29"/><path fill="#000102" d="M433.898 31.908v.002h.003"/><path d="M447.654 48.995c0 1.14-.15 2.117-.42 2.98 3.134-.952 5.313-3.126 5.313-7.506 0-7.352-5.92-7.89-11.78-7.89h-1.854v4.734l.008-.13c4.707.315 8.734 1.744 8.734 7.81M433.887 77V31.918l-4.89 4.52v45.088h5.02L438.922 77l-.007-.357V77M451.96 55.513c.013-.018.027-.032.046-.045.016-.017.032-.032.05-.048.015-.01.033-.027.045-.04.017-.018.032-.034.05-.05.015-.008.028-.017.04-.03.016-.018.04-.042.06-.057l.063-.06c.014-.01.02-.02.03-.032l.044-.03c.02-.022.046-.05.075-.074l.032-.027c.01-.015.032-.034.047-.05.015-.01.034-.027.05-.04.037-.035.08-.074.116-.113.01-.004.016-.01.025-.02.02-.014.037-.036.052-.048l.05-.046c.016-.017.033-.03.05-.04l.047-.05c.017-.01.03-.027.044-.04.02-.017.035-.034.05-.048.017-.018.035-.03.05-.046l.047-.048c.018-.01.04-.025.05-.042.012-.01.024-.022.036-.028.02-.023.044-.04.064-.06.02-.018.04-.04.063-.06l.034-.03c.014-.01.03-.028.05-.047.012-.013.03-.028.043-.043.02-.012.035-.032.05-.045.02-.015.032-.028.05-.044.01-.012.02-.024.037-.028.02-.025.05-.054.076-.078.01-.002.015-.01.022-.02.023-.018.05-.042.075-.064.077-.07.13-.16.204-.233-.232.227-.46.458-.71.667-3.05 2.51-6.938 2.994-10.7 2.994h-3.65v4.478c3.255-.146 6.854-.802 9.462-2.946.17-.143.344-.3.512-.455.026-.025.05-.048.078-.072.006-.005.01-.01.014-.016.027-.026.058-.053.083-.073.004-.008.01-.012.016-.018.024-.026.05-.044.075-.07.006-.008.013-.015.023-.02.028-.028.05-.052.08-.078.01-.004.02-.02.03-.024.017-.015.032-.033.047-.052.016-.01.035-.02.05-.04l.046-.042c.02-.017.038-.034.05-.047.013-.013.023-.017.036-.027.024-.03.054-.053.077-.075l.035-.036c.016-.012.03-.025.045-.04.01-.012.032-.023.043-.037.016-.014.04-.037.062-.055.018-.02.04-.038.053-.056.02-.012.032-.022.037-.036.016-.008.026-.016.036-.028.03-.023.053-.05.08-.077l.02-.008c.02-.023.046-.04.064-.06.018-.02.042-.046.06-.062l.032-.032c.015-.016.034-.025.052-.043.012-.016.03-.03.05-.048.012-.013.028-.03.042-.04.017-.016.036-.033.055-.046.012-.014.025-.03.043-.042.02-.02.03-.03.05-.042.014-.018.03-.038.046-.053.014-.01.024-.017.033-.03.03-.02.054-.05.083-.07l.028-.03c.014-.01.027-.023.04-.03.024-.03.052-.052.077-.078.014-.008.02-.02.034-.03.012-.01.03-.03.05-.04.012-.013.02-.022.032-.03.02-.02.04-.044.062-.06.017-.02.036-.033.054-.048.023-.02.04-.04.058-.058.012-.013.025-.02.038-.032.013-.015.027-.03.045-.043l.035-.033c.02-.017.042-.036.062-.058.02-.023.045-.042.067-.062.006-.01.018-.023.028-.032.022-.01.035-.025.05-.042l.048-.043c.013-.008.022-.022.035-.032.02-.02.042-.04.067-.06.02-.018.04-.04.062-.055.008-.01.02-.028.033-.033.01-.012.023-.02.03-.033.03-.026.058-.047.08-.07.013-.015.02-.022.035-.032.01-.01.023-.02.032-.03.026-.024.054-.05.083-.08.01-.005.02-.017.032-.023.013-.017.03-.032.047-.044M479.634 54.515c0-6.928 3.075-13.128 7.896-17.408-.054.045-.117.082-.17.137-.02.01-.037.025-.057.045-.016.014-.03.026-.045.043-.018.012-.033.032-.05.043-.012.013-.028.03-.048.04-.02.014-.032.034-.05.053-.016.01-.032.025-.044.037-.013.015-.033.032-.048.047-.02.01-.034.03-.05.047-.02.015-.035.034-.05.046l-.047.038-.05.053c-.016.013-.03.03-.045.042-.024.01-.033.027-.05.045-.018.017-.033.028-.048.045-.02.014-.033.03-.045.04-.022.018-.038.034-.055.044-.017.02-.03.037-.05.053-.013.01-.03.027-.045.037-.015.018-.035.036-.052.05-.018.015-.033.028-.045.042-.016.015-.028.027-.048.042-.016.016-.035.035-.05.047l-.048.05c-.017.01-.03.02-.052.04-.015.017-.03.03-.05.05l-.045.04c-.016.014-.028.03-.044.044-.02.01-.036.028-.055.045l-.05.047c-.013.013-.03.026-.048.037-.017.015-.032.036-.047.05-.02.013-.035.03-.052.048-.014.017-.028.026-.04.037-.018.02-.032.03-.05.05-.017.015-.035.027-.054.047l-.046.04c-.015.018-.033.032-.053.05-.015.013-.03.03-.04.043-.02.015-.037.025-.053.044-.017.017-.037.025-.05.045-.016.014-.032.026-.044.042-.02.015-.035.033-.054.045-.014.017-.032.027-.044.047-.017.012-.035.03-.052.044-.015.013-.03.03-.047.043l-.047.042c-.018.02-.03.036-.056.05-.01.014-.024.025-.04.042-.02.015-.033.03-.05.047-.018.01-.03.026-.05.042l-.048.045c-.017.02-.037.032-.048.047-.02.013-.032.03-.05.043l-.045.047c-.015.007-.035.027-.05.036-.013.02-.033.03-.046.05-.018.017-.036.03-.054.05l-.052.04c-.01.01-.03.036-.047.043-.01.018-.025.034-.044.05-.014.016-.032.028-.048.044-.016.01-.035.028-.048.047-.018.004-.034.024-.053.042-.013.015-.032.032-.045.04-.013.018-.036.04-.052.05-.01.01-.028.03-.046.043-.018.015-.036.03-.047.046-.02.012-.034.03-.055.042-.014.018-.028.03-.048.044-.013.016-.028.03-.044.046-.018.013-.03.035-.05.05-.02.008-.033.027-.045.042-.02.016-.036.025-.053.04-.017.017-.03.033-.05.044l-.043.05c-.02.014-.032.023-.05.042-.016.015-.035.032-.052.044-.012.015-.034.032-.043.05-.022.012-.032.026-.05.037-.02.018-.036.033-.05.053-.016.01-.03.025-.05.038-.015.014-.03.032-.048.047-.018.017-.034.028-.05.047l-.046.046c-.017.012-.033.028-.047.038-.015.02-.033.03-.052.053-.016.013-.03.024-.047.04-.012.018-.034.033-.047.045-.022.016-.034.034-.048.044-.015.017-.03.032-.045.04-.02.018-.034.035-.05.05-.02.016-.036.034-.053.048-.016.01-.03.022-.044.04-.018.017-.035.03-.052.044-.013.015-.03.034-.05.047-.017.014-.026.027-.043.038-.018.02-.036.036-.054.054-.012.01-.03.022-.044.04-.02.015-.036.03-.05.047-.02.015-.036.032-.053.044-4.748 4.278-7.757 10.453-7.757 17.317 0 12.98 10.64 23.266 23.498 23.266 6.048 0 11.605-2.28 15.796-6.037.02-.017.033-.033.047-.047.02-.013.036-.03.054-.042.015-.016.032-.03.05-.05.012-.014.027-.023.043-.04.012-.014.034-.027.05-.045.014-.014.027-.03.046-.042.018-.012.034-.032.053-.047.02-.017.03-.03.05-.05.017-.01.03-.027.048-.042.013-.01.03-.03.048-.042.01-.018.028-.028.05-.047.016-.016.034-.038.048-.045.02-.016.03-.03.044-.04.017-.02.035-.036.05-.05.015-.014.03-.03.05-.043.012-.014.03-.028.05-.048.015-.015.03-.033.047-.04.016-.02.033-.032.05-.05.018-.01.027-.03.048-.043.017-.013.033-.026.05-.043.01-.017.027-.027.042-.045.02-.015.04-.034.058-.05.015-.013.028-.028.043-.04.02-.018.034-.034.05-.053.018-.01.03-.02.047-.034.016-.02.032-.034.048-.05.018-.016.04-.03.057-.05.012-.012.028-.025.04-.04.016-.012.033-.027.047-.043.016-.013.035-.028.05-.046.015-.013.033-.034.048-.04.017-.02.035-.037.053-.052.015-.014.03-.03.05-.043.015-.014.028-.032.05-.047.012-.018.027-.026.042-.042l.05-.045c.02-.015.032-.03.05-.05.015-.01.03-.023.052-.04.013-.017.028-.032.045-.045.017-.012.03-.028.05-.042.01-.016.027-.026.04-.043l.057-.055c.017-.012.03-.028.047-.037.017-.02.03-.032.045-.042.014-.016.03-.03.053-.052.015-.012.032-.032.046-.043.013-.015.03-.03.04-.037l.055-.05c.016-.013.036-.033.05-.05.017-.014.033-.023.046-.038.016-.014.03-.027.05-.04.017-.024.034-.036.052-.053.012-.014.032-.028.04-.04.022-.016.04-.032.058-.05.018-.015.03-.023.048-.043.015-.016.034-.032.05-.05.014-.01.025-.023.04-.043.02-.01.036-.026.056-.04.013-.016.027-.032.045-.047.013-.012.033-.024.046-.042.02-.014.03-.03.05-.045.015-.01.036-.032.05-.048.017-.012.03-.03.045-.04.02-.017.04-.033.056-.05.01-.015.03-.024.044-.043.014-.01.032-.027.05-.042.015-.015.03-.03.048-.043.015-.02.034-.035.05-.053.02-.012.032-.027.044-.04.016-.01.038-.032.058-.045.01-.018.025-.032.038-.04.02-.02.034-.04.05-.047.02-.02.037-.036.055-.05.014-.017.03-.03.042-.04.02-.015.036-.033.052-.048l.045-.044c.022-.016.037-.033.053-.047.02-.015.03-.03.05-.046.01-.015.027-.024.04-.04.017-.015.03-.032.05-.047.023-.013.037-.028.057-.046.013-.018.025-.027.04-.04.017-.016.035-.037.052-.05.018-.014.033-.03.053-.045.012-.012.03-.024.045-.04.012-.02.032-.037.05-.05.017-.008.025-.027.044-.04.02-.02.033-.034.055-.054.016-.007.033-.025.05-.04.012-.01.032-.027.042-.042.02-.016.035-.03.05-.047.016-.012.036-.03.05-.042.015-.017.034-.035.05-.048l.044-.042c.018-.015.03-.03.05-.044.016-.013.035-.034.05-.048.013-.014.033-.03.048-.043.02-.017.032-.033.047-.048.02-.013.034-.032.053-.046l.045-.044c.13-.114.233-.248.358-.362-4.227 3.94-9.904 6.356-16.114 6.356-12.856 0-23.498-10.29-23.498-23.265" fill="#0F1F29"/><path d="M503.132 35.798c-6.053 0-11.33 2.9-14.682 7.345 2.824-1.78 6.172-2.813 9.788-2.813 10.347 0 18.482 8.426 18.482 18.65 0 4.19-1.41 8.098-3.773 11.238 5.204-3.33 8.664-9.188 8.664-15.762 0-10.226-8.13-18.658-18.478-18.658M551.386 77V31.918l-4.89 4.52v45.088h17.457L568.86 77l-.013-.014V77M596.892 77h-5.022V31.915l-4.894 4.523v45.088h5.02L596.905 77l-.012-.2" fill="#0F1F29"/><path fill="#CF961F" d="M165.352 77v-4.662h-12.44v-40.43h-5.024V77M193.274 36.577h18.36v-4.67h-23.38V77h23.38v-4.662h-18.36V54.633h17.822v-4.66h-17.822v-8.87M238.418 30v47h5.027V42.257l35.162 36.778V31.908h-5.023v34.927l-4.895-5.13-30.097-31.52-.17-.177"/><g fill="#CF961F"><path d="M328.833 67.674c-.88.827-1.787 1.485-2.714 2.053-.146.092-.295.206-.444.29-.023.01-.04.023-.062.036-3.286 1.848-6.9 2.285-11.012 2.285h-3.652v-35.76h3.652c5.32 0 9.863.714 13.993 4.362 3.886 3.408 5.856 8.374 5.856 13.516 0 5.022-1.91 9.748-5.617 13.218m3.17-30.323c-5.324-4.542-10.825-5.442-17.583-5.442h-8.488V77h8.37c7.053 0 12.435-.896 17.82-5.68.443-.393.843-.81 1.244-1.227 4.1-4.253 6.11-9.584 6.11-15.578 0-6.696-2.328-12.736-7.472-17.164M395.454 70.214c-2.846 1.826-6.204 2.9-9.818 2.9-10.222 0-18.476-8.49-18.476-18.658 0-4.24 1.415-8.162 3.79-11.31 3.35-4.446 8.632-7.348 14.686-7.348 10.346 0 18.48 8.432 18.48 18.658 0 6.572-3.46 12.43-8.662 15.758m-9.818-39.08c-5.837 0-11.206 2.175-15.343 5.738-4.97 4.287-8.157 10.59-8.157 17.643 0 12.975 10.643 23.264 23.5 23.264 6.343 0 12.14-2.513 16.393-6.608 4.368-4.204 7.106-10.08 7.106-16.657 0-12.92-10.642-23.38-23.5-23.38M438.913 41.314V36.58h1.855c5.86 0 11.78.538 11.78 7.888 0 4.38-2.18 6.555-5.313 7.505-1.486.45-3.183.627-4.973.627h-3.35V41.314zm3.65 15.956c3.763 0 7.65-.482 10.7-2.994.252-.21.48-.44.71-.667 2.344-2.34 3.596-5.698 3.596-9.022 0-4.008-1.733-7.953-5.082-10.284-3.29-2.272-7.3-2.394-11.185-2.394h-7.414V77h5.025V57.27h3.65zM512.947 70.218c-2.844 1.822-6.2 2.895-9.815 2.895-10.225 0-18.475-8.49-18.475-18.657 0-4.24 1.414-8.165 3.793-11.313 3.35-4.444 8.63-7.345 14.682-7.345 10.347 0 18.48 8.432 18.48 18.658 0 6.574-3.462 12.433-8.665 15.762m-9.815-39.084c-5.964 0-11.432 2.27-15.602 5.973-4.82 4.28-7.896 10.48-7.896 17.408 0 12.975 10.64 23.264 23.498 23.264 6.21 0 11.886-2.417 16.114-6.356 4.53-4.223 7.39-10.2 7.39-16.91 0-12.918-10.645-23.38-23.504-23.38M551.386 31.908V77h17.46v-4.662h-12.435v-40.43M596.892 77V31.908h-5.022V77M639.226 51.17l-2.99-1.32c-3.048-1.373-7.055-3.167-7.055-7.057 0-.777.157-1.488.382-2.166.976-2.922 3.84-4.83 7.096-4.83 3.825 0 5.976 1.793 7.772 4.905l4.01-2.57c-.202-.373-.434-.708-.658-1.052-2.47-3.768-6.407-5.946-11.01-5.946-3.534 0-6.84 1.26-9.185 3.468-2.1 1.978-3.428 4.713-3.428 8.017 0 6.457 4.543 9.15 9.803 11.54l2.75 1.19c4.187 1.92 8.314 3.708 8.314 8.975 0 3.773-2.442 6.786-5.684 8.088-1.125.45-2.34.7-3.59.7-4.41 0-7.72-3.128-8.775-7.162-.105-.394-.192-.795-.253-1.206v-.003l-4.9 1.374.002.008c1.442 6.997 6.82 11.657 14.048 11.657 3.76 0 7.166-1.4 9.7-3.72 2.75-2.514 4.473-6.11 4.473-10.215 0-7.176-4.96-10.11-10.82-12.676"/></g></g></g></svg>