<svg width="161" height="30" xmlns="http://www.w3.org/2000/svg"><title>LENDOPOLIS</title><g fill="none" fill-rule="evenodd"><path d="M96.118 9.22a6.132 6.132 0 0 0-3.98 1.487 6.061 6.061 0 0 0-2.121 4.58c0 3.33 2.738 6.043 6.101 6.043 1.597 0 3.11-.609 4.251-1.716a5.95 5.95 0 0 0 1.842-4.327c.009-3.346-2.73-6.067-6.093-6.067zm2.197 9.591c-.659.423-1.42.651-2.197.651-2.281 0-4.14-1.876-4.14-4.183 0-.921.295-1.8.853-2.535a4.079 4.079 0 0 1 3.287-1.648c2.282 0 4.141 1.876 4.141 4.183a4.186 4.186 0 0 1-1.944 3.532zm14.316-8.755c-.87-.6-1.885-.65-2.94-.65l-2.173.008v11.73h1.96v-4.817h.525c.862 0 1.969-.093 2.848-.812.067-.059.118-.11.177-.16l.026-.025c.625-.626.988-1.522.988-2.46-.008-1.149-.532-2.205-1.411-2.814zm-1.597 4.26c-.304.092-.676.135-1.107.135h-.448v-3.17h.084c1.665 0 2.502.237 2.502 1.556.008.794-.321 1.267-1.031 1.478zm13.74-5.096c-1.487 0-2.923.549-4.047 1.546a6.072 6.072 0 0 0-2.054 4.521c0 3.33 2.738 6.043 6.102 6.043a6.112 6.112 0 0 0 4.183-1.648 5.937 5.937 0 0 0 1.918-4.395c.009-3.346-2.73-6.067-6.101-6.067zm2.198 9.591c-.66.423-1.42.651-2.197.651-2.282 0-4.141-1.876-4.141-4.183 0-.921.296-1.8.853-2.535a4.079 4.079 0 0 1 3.288-1.648c2.281 0 4.14 1.876 4.14 4.183a4.186 4.186 0 0 1-1.943 3.532zm11.172.457V9.406h-1.96v11.738h4.993v-1.876h-3.033zm7.91-9.862v11.738h1.96V9.406h-1.96zm12.067 4.732l-.727-.321c-.853-.389-1.504-.727-1.504-1.386 0-.127.025-.262.076-.414.186-.55.744-.93 1.378-.93.718 0 1.157.288 1.58 1.014l.194.338 1.589-1.022-.338-.583a3.516 3.516 0 0 0-2.992-1.614c-.946 0-1.85.346-2.492.946a2.964 2.964 0 0 0-.955 2.223c0 1.817 1.284 2.552 2.61 3.152l.677.296.05.025c1.09.499 1.758.853 1.758 1.825 0 .71-.456 1.352-1.157 1.631-.237.093-.49.144-.736.144-.845 0-1.546-.575-1.783-1.47-.008-.043-.11-.677-.11-.677l-1.91.533.06.397c.405 1.876 1.884 3.085 3.777 3.085.98 0 1.91-.355 2.611-1.006a3.722 3.722 0 0 0 1.209-2.763c0-2.003-1.479-2.815-2.865-3.423zm-118.403 5.13V9.406H37.75v11.738h5.003v-1.876h-3.034zm7.885-9.862v11.738h6.44v-1.876h-4.48v-3.583h4.344v-1.868h-4.344v-2.535h4.48V9.406h-6.44zm20.814.017v7.554L59.839 9.22v11.957H61.8v-7.673l8.577 7.834V9.423h-1.96zm14.856 1.402c-1.377-1.174-2.805-1.42-4.53-1.42h-2.442v11.739h2.417c1.809 0 3.203-.245 4.589-1.48.118-.1.22-.21.321-.312 1.048-1.082 1.597-2.484 1.597-4.056 0-1.826-.676-3.372-1.952-4.47zm-1.267 7.403c-.178.17-.71.524-.71.524l-.009.009c-.65.363-1.369.507-2.501.507h-.524v-7.986h.524c1.242 0 2.256.169 3.169.972.828.726 1.301 1.825 1.301 3.016.009 1.158-.44 2.206-1.25 2.958z" fill="#000" fill-rule="nonzero"/><circle fill="#FFF" cx="14.966" cy="14.907" r="14.67"/><path d="M4.724 8.654l-.735-1.217s-1.826 2.535-2.257 5.83c-.338 2.62.068 4.818.744 6.49h3.558c.203 0 .397.051.566.136v-3.414c0-.693.566-1.26 1.208-1.327h.913L4.724 8.654zm16.386 6.49h.913c.642.067 1.208.633 1.208 1.326v3.415a1.27 1.27 0 0 1 .566-.136h3.558c.676-1.673 1.082-3.87.744-6.49-.423-3.287-2.257-5.83-2.257-5.83l-.735 1.216-3.997 6.499zM19.014 3.237l.127-.87s-2.096-.66-4.285-.66c-1.918 0-4.166.752-4.166.752l.211 1.31.06.473.878 7.192h.592c.186 0 .372.042.532.118V9.431c0-.693.609-1.318 1.302-1.318h1.369c.693 0 1.217.625 1.217 1.318v2.113c.16-.068.33-.11.515-.11h.642l.896-7.293v-.009l.11-.895z" fill="#CAF4FE" fill-rule="nonzero"/><path d="M14.958.068C6.71.068 0 6.778 0 15.025a14.8 14.8 0 0 0 1.64 6.795 15.174 15.174 0 0 0 4.275 5.112 14.883 14.883 0 0 0 9.034 3.051c3.397 0 6.524-1.14 9.034-3.05a15.093 15.093 0 0 0 4.15-4.851 14.838 14.838 0 0 0 1.774-7.057C29.915 6.777 23.206.068 14.957.068zm12.194 20.171h-3.389a.62.62 0 0 0-.617.617v4.59a9.543 9.543 0 0 1-.557.413v-9.54a.62.62 0 0 0-.617-.618h-1.403a.62.62 0 0 0-.617.617l.017 10.978s-.346.143-.566.22V12.54a.62.62 0 0 0-.617-.617h-1.403a.62.62 0 0 0-.617.617s0 15.6.009 15.617c-.178.025-.364.05-.55.067V9.28a.62.62 0 0 0-.617-.617H14.24a.62.62 0 0 0-.616.617v18.946c-.186-.017-.38-.042-.567-.067l.009-15.617a.62.62 0 0 0-.617-.617H11.07a.62.62 0 0 0-.616.617v14.958c-.229-.085-.609-.237-.609-.237l.009-10.944a.62.62 0 0 0-.617-.617H7.834a.62.62 0 0 0-.617.617V25.8a10.204 10.204 0 0 1-.6-.456v-4.488A.62.62 0 0 0 6 20.24H2.746c-.845-2.053-1.073-3.371-1.073-5.222 0-7.318 5.95-13.268 13.268-13.268 7.318 0 13.267 5.95 13.267 13.268a12.794 12.794 0 0 1-1.056 5.222z" fill="#000" fill-rule="nonzero"/></g></svg>
