<svg width="30" height="30" xmlns="http://www.w3.org/2000/svg"><title>LENDOPOLIS</title><g fill="none" fill-rule="evenodd"><circle fill="#FFF" cx="14.966" cy="14.907" r="14.67"/><path d="M4.724 8.654l-.735-1.217s-1.826 2.535-2.257 5.83c-.338 2.62.068 4.818.744 6.49h3.558c.203 0 .397.051.566.136v-3.414c0-.693.566-1.26 1.208-1.327h.913L4.724 8.654zm16.386 6.49h.913c.642.067 1.208.633 1.208 1.326v3.415a1.27 1.27 0 0 1 .566-.136h3.558c.676-1.673 1.082-3.87.744-6.49-.423-3.287-2.257-5.83-2.257-5.83l-.735 1.216-3.997 6.499zM19.014 3.237l.127-.87s-2.096-.66-4.285-.66c-1.918 0-4.166.752-4.166.752l.211 1.31.06.473.878 7.192h.592c.186 0 .372.042.532.118V9.431c0-.693.609-1.318 1.302-1.318h1.369c.693 0 1.217.625 1.217 1.318v2.113c.16-.068.33-.11.515-.11h.642l.896-7.293v-.009l.11-.895z" fill="#CAF4FE" fill-rule="nonzero"/><path d="M14.958.068C6.71.068 0 6.778 0 15.025a14.8 14.8 0 0 0 1.64 6.795 15.174 15.174 0 0 0 4.275 5.112 14.883 14.883 0 0 0 9.034 3.051c3.397 0 6.524-1.14 9.034-3.05a15.093 15.093 0 0 0 4.15-4.851 14.838 14.838 0 0 0 1.774-7.057C29.915 6.777 23.206.068 14.957.068zm12.194 20.171h-3.389a.62.62 0 0 0-.617.617v4.59a9.543 9.543 0 0 1-.557.413v-9.54a.62.62 0 0 0-.617-.618h-1.403a.62.62 0 0 0-.617.617l.017 10.978s-.346.143-.566.22V12.54a.62.62 0 0 0-.617-.617h-1.403a.62.62 0 0 0-.617.617s0 15.6.009 15.617c-.178.025-.364.05-.55.067V9.28a.62.62 0 0 0-.617-.617H14.24a.62.62 0 0 0-.616.617v18.946c-.186-.017-.38-.042-.567-.067l.009-15.617a.62.62 0 0 0-.617-.617H11.07a.62.62 0 0 0-.616.617v14.958c-.229-.085-.609-.237-.609-.237l.009-10.944a.62.62 0 0 0-.617-.617H7.834a.62.62 0 0 0-.617.617V25.8a10.204 10.204 0 0 1-.6-.456v-4.488A.62.62 0 0 0 6 20.24H2.746c-.845-2.053-1.073-3.371-1.073-5.222 0-7.318 5.95-13.268 13.268-13.268 7.318 0 13.267 5.95 13.267 13.268a12.794 12.794 0 0 1-1.056 5.222z" fill="#000" fill-rule="nonzero"/></g></svg>
