<svg width="80" height="28" viewBox="0 0 80 28" xmlns="http://www.w3.org/2000/svg" fill="#333"><title>Ingenico Group</title><path d="M.19 18.01V6.72h2.52v11.29M5.884.814h44.86v2.05H5.884M22.38 22.66c-1.597 0-3.06-.33-3.964-.6l.385-2.15c.967.228 2.37.435 3.16.435 1.675 0 2.81-.29 2.81-2.274.038-.04 0-.554 0-.62-.52.418-1.25.75-2.02.75-2.405 0-5.1-.663-5.1-5.77 0-3.846 2.483-5.893 5.484-5.893 1.195 0 2.5.165 4.138.435v11.39c0 3.164-2.653 4.3-4.886 4.3zm2.367-13.75c-.423-.04-.904-.123-1.636-.123-2.11 0-2.96 1.55-2.96 3.66 0 2.688 1.08 3.618 2.735 3.618.75 0 1.385-.31 1.867-.56V8.912zm7.39 4.22c.02 2.46 1.443 2.81 3.33 2.81.73 0 2.02-.103 2.846-.288l.385 2.11c-.827.288-2.424.433-3.695.433-3.29 0-5.388-1.22-5.388-5.645 0-4.59 2.156-6.1 5.12-6.1 3.04 0 4.27 2.15 4.27 5.686v.993h-6.87zm2.366-4.612c-1.077 0-2.194.785-2.31 2.688h4.196c.02-1.736-.81-2.688-1.89-2.688zm19.413 9.492V6.72h2.52v11.29m10.28-8.85c-.694-.29-1.348-.497-2.407-.497-1.62 0-2.85.993-2.85 3.64 0 2.543.633 3.68 3.403 3.68.866 0 1.443-.166 2.136-.27l.347 2.11c-.83.185-1.52.372-2.656.372-4.233 0-5.83-1.716-5.83-5.934 0-3.573 2.117-5.83 5.446-5.83 1.5 0 2.442.31 3.135.727l-.73 2.006zm7.1 9.096c-3.234 0-5.04-2.17-5.04-5.79 0-3.803 2.096-6.037 5.213-6.037 3.5 0 5.13 2.17 5.13 5.93 0 3.89-2.27 5.892-5.31 5.892zM73.93 8.6c-2.058 0-2.616 1.82-2.616 3.784 0 2.11.635 3.68 2.655 3.68 2.054 0 2.554-1.653 2.554-3.7 0-1.923-.5-3.763-2.597-3.763z"/><circle cx="1.451" cy="1.839" r="1.451"/><circle cx="55.176" cy="1.839" r="1.451"/><path d="M11.95 6.41c-1.596 0-2.81.95-3.52 1.488v-.023l-.076.082c-.248-.91-.9-1.172-1.493-1.238h-.97v11.29h2.54V9.733c.5-.29 1.66-.972 2.717-.972 1.424 0 1.713.745 1.713 2.378v6.866h2.52V10.83c0-2.315-.21-4.423-3.426-4.423zm35.375 0c-1.596 0-2.81.95-3.52 1.488v-.023c-.027.027-.052.055-.077.082-.248-.91-.9-1.172-1.492-1.238h-.972v11.29h2.54V9.733c.5-.29 1.655-.972 2.713-.972 1.424 0 1.712.745 1.712 2.378v6.866h2.52V10.83c0-2.315-.21-4.423-3.43-4.423zm7.808 21.176c-.46.226-1.157.374-1.854.374-2.02 0-2.88-1.034-2.88-3.36 0-2.362.894-3.387 2.9-3.387.596 0 1.243.13 1.693.32l-.102.8c-.442-.19-.97-.304-1.547-.304-1.42 0-2.024.59-2.024 2.56 0 1.91.536 2.532 1.93 2.532.434 0 .79-.06 1.106-.182v-2.55h.773v3.196zm4.364-2.656l1.667 2.908h-1.038l-1.438-2.744h-1.284v2.744h-.867v-6.512h2.16c1.395 0 2.05.6 2.05 1.858 0 .998-.443 1.607-1.25 1.746zm-.8-2.83h-1.293v2.29h1.26c.815 0 1.18-.31 1.18-1.17 0-.818-.347-1.12-1.147-1.12zm5.766 5.86c-1.888 0-2.645-1-2.645-3.378 0-2.38.748-3.36 2.645-3.36 1.905 0 2.637.98 2.637 3.36 0 2.397-.732 3.378-2.637 3.378zm0-5.914c-1.25 0-1.727.538-1.727 2.536 0 1.988.476 2.544 1.727 2.544 1.25 0 1.727-.555 1.727-2.544 0-1.997-.468-2.536-1.727-2.536zm8.743 3.448c0 1.71-.867 2.466-2.424 2.466-1.556 0-2.432-.755-2.432-2.466v-4.168h.867v4.16c0 1.137.51 1.632 1.565 1.632 1.063 0 1.557-.504 1.557-1.633v-4.16h.862v4.17zm3.69-.094h-1.25v2.438h-.867v-6.512h2.113c1.565 0 2.228.625 2.228 2.04 0 1.338-.645 2.033-2.227 2.033zm0-3.3h-1.25v2.552h1.25c.903 0 1.336-.287 1.336-1.285 0-.947-.408-1.268-1.335-1.268z"/></svg>
