<svg xmlns="http://www.w3.org/2000/svg" viewBox="0 0 99.95 19.53"><title>MANGOPAY</title><g mask="url(#a)"><path d="M99.95 4l-.79 1.75-2.44 5.5a.83.83 0 0 0-.07.35v3.77c0 .15 0 .18-.18.18h-1.94c-.14 0-.17 0-.17-.18v-3.91a.84.84 0 0 0-.07-.35l-3.12-7a.31.31 0 0 1-.05-.18h2.31a.2.2 0 0 1 .22.16l1.8 4.69.05.13c.07 0 .07-.09.09-.14q.91-2.33 1.81-4.66a.24.24 0 0 1 .29-.18h2.26z" fill="#da581f"/></g><g mask="url(#b)"><path d="M6.49 3.27l.13-.14 3-3 .1-.13h.07a.62.62 0 0 1 0 .21V6.41a.49.49 0 0 1 0 .06h-.06L6.55 3.38a.27.27 0 0 1-.06-.08" fill="#f0864c"/></g><path d="M30.85 12.45l.22-.9 1.85-7.5c0-.09.06-.13.16-.13h2.7c.15 0 .15.07.15.18v11.27c0 .14 0 .19-.18.19h-1.94c-.11 0-.15 0-.15-.14v-3.2c0-1.07.1-2.38.15-3.57v-1c-.05 0 0 .09 0 .13q-1.06 3.76-2.11 7.52c0 .17-.11.23-.29.22H30.3a.19.19 0 0 1-.23-.17q-1-3.77-2.11-7.53V7.7c-.06 0 0 .07 0 .1.06 1.43.15 2.86.19 4.29v3.32c0 .08 0 .11-.11.11h-2.15c-.08 0-.12 0-.11-.11s0-.07 0-.1V4.11c0-.17 0-.22.21-.22h2.56c.15 0 .2.05.24.19q1 3.95 1.92 7.89l.11.44M49.12 8.15v7.2c0 .16 0 .2-.2.2H47c-.17 0-.22 0-.22-.21v-10-1.32c0-.1 0-.14.13-.14h2c.12 0 .15.07.2.15l3.38 7.07.1.2a.24.24 0 0 0 0-.18v-7c0-.18 0-.22.22-.21h1.9c.29.02.29.02.29.18v11.3c0 .15-.05.17-.18.17h-1.94a.22.22 0 0 1-.23-.15l-3.24-6.76-.24-.5M58.8 9.75v2a3.19 3.19 0 0 0 .15.92 1.63 1.63 0 0 0 1.6 1.2 3.2 3.2 0 0 0 .76-.06 1.28 1.28 0 0 0 .82-.59.28.28 0 0 0 0-.17v-1.84c0-.12 0-.15-.15-.14h-1.2c-.11 0-.14 0-.14-.14V9.57c0-.09 0-.12.12-.12h3.57c.1 0 .13 0 .13.13v4.12a.35.35 0 0 1-.08.22 4.17 4.17 0 0 1-3 1.72 5.3 5.3 0 0 1-2.19-.15 3.57 3.57 0 0 1-2.6-2.94 6.48 6.48 0 0 1-.1-1.18V8.01a5.23 5.23 0 0 1 .36-2.07 3.5 3.5 0 0 1 2.78-2.11 5.49 5.49 0 0 1 2.31.1 3 3 0 0 1 2.35 2.47 5.05 5.05 0 0 1 .11.95c0 .11 0 .14-.14.14h-1.87c-.12 0-.15 0-.15-.15a2.35 2.35 0 0 0-.08-.58 1.4 1.4 0 0 0-1.46-1.18 1.67 1.67 0 0 0-1.83 1.5 4.63 4.63 0 0 0-.08.86v1.81" fill="#da581f"/><path d="M13 3.27a.8.8 0 0 1 0 .22V9.7a.32.32 0 0 1 0 .1v6.17a.47.47 0 0 1-.06.25l.06.11-3.15 3.11-.09.07a.31.31 0 0 1-.06-.23v-6a.67.67 0 0 1 0-.17v-.06c.12 0 .17.07.24.14L12.75 16a.86.86 0 0 0 .13.12v-.07-6a1.19 1.19 0 0 0 0-.21 1 1 0 0 1 0-.13V8.42 3.66a1.28 1.28 0 0 1 0-.29s0-.06.07-.07" fill="#eb6550"/><path d="M3.22 13.01a.82.82 0 0 1 0-.24V6.83a1.21 1.21 0 0 1 0-.22L6 3.71l.45-.43a.46.46 0 0 1 .06.27v6a.74.74 0 0 1 0 .19v.06c-.12 0-.17-.08-.24-.14L3.44 6.78a.41.41 0 0 0-.13-.11.52.52 0 0 0 0 .19v5.86a.89.89 0 0 1 0 .24s0 .05-.06.05" fill="#f6c95c"/><path d="M3.22 13.01a.8.8 0 0 1 .15-.19l2.92-2.89c.06-.06.11-.16.23-.12a.1.1 0 0 1 0 .08v6.35a.1.1 0 0 1 0 .09l-2.89-2.9-.41-.42" fill="#b2c768"/><path d="M6.52 16.31v-.06a.26.26 0 0 1 .1-.14l3-3a.37.37 0 0 1 .11-.09v6.47h-.05l-3.16-3.18M13 3.27a.63.63 0 0 1-.15.19L10 6.38c-.05.05-.09.12-.18.12a.37.37 0 0 1 0-.19V.23v-.2l.18.19 2.9 2.92.12.13" fill="#f6a432"/><path d="M16.29 6.54l.57.56 2.56 2.56c.06.06.13.1 0 .2l-3.1 3.07h-.06a.56.56 0 0 1 0-.26v-5.9a.59.59 0 0 1 0-.26h.06" fill="#cb2b2b"/><path d="M16.29 6.54a.66.66 0 0 1-.15.19l-2.92 2.89c-.05.05-.1.13-.19.13V3.47v-.16l3.23 3.24" fill="#d6302f"/><path d="M3.18 6.57c.06.05 0 .12 0 .18v6.18l-1.64-1.59L.07 9.87C0 9.82 0 9.79 0 9.7l3.18-3.13" fill="#d0d62c"/><path d="M13 16.25V9.8c.08 0 .12.06.17.11l2.93 2.93a.86.86 0 0 1 .13.18l-.06.08-3.11 3.11-.07.05" fill="#dd3d29"/><path d="M9.76 13.05a1.08 1.08 0 0 1-.21-.2L6.66 9.99c-.06-.06-.13-.1-.15-.19a.79.79 0 0 1 .15-.19l2.9-2.89c.05-.05.09-.14.19-.12a.34.34 0 0 1 0 .23v6a.88.88 0 0 1 0 .19.14.14 0 0 1 0 .06z" fill="#f0864c"/><path d="M9.76 13.02v-6.4a.6.6 0 0 1 0-.07c.07 0 .11.06.15.1l2.92 2.92a.92.92 0 0 1 .17.16v.09c0 .08-.06.12-.11.17l-2.96 2.94s-.09.11-.17.1" fill="#dd3d29"/><path d="M71.73 11.62a3.34 3.34 0 0 1-.23 1.24 1.58 1.58 0 0 1-1.6 1.07 1.56 1.56 0 0 1-1.54-1.08 3.55 3.55 0 0 1-.21-1.26V9.75v-2a3 3 0 0 1 .24-1.13 1.56 1.56 0 0 1 1.58-1 1.67 1.67 0 0 1 1.65 1.48 4.47 4.47 0 0 1 .11 1v3.56M74 8.14a5.7 5.7 0 0 0-.15-1.38 3.66 3.66 0 0 0-2.45-2.77 4.61 4.61 0 0 0-2.73-.06 3.52 3.52 0 0 0-2.22 1.72 4.37 4.37 0 0 0-.55 2.06V11.48a5.44 5.44 0 0 0 .1 1.15 3.68 3.68 0 0 0 1.93 2.66 4.33 4.33 0 0 0 2.28.43A3.71 3.71 0 0 0 73.35 14a4.38 4.38 0 0 0 .65-2.35V8.14M42.39 11.26h-1.82c-.08 0-.15 0-.11-.12l1-3.9s0-.06.06-.07l.34 1.32c.22.87.44 1.74.67 2.6 0 .12 0 .17-.12.16m3.52 4.17c-.11-.35-.2-.7-.3-1.05L42.73 4.1c0-.12-.08-.18-.22-.17h-2.05a.17.17 0 0 0-.2.15c-.18.65-.36 1.3-.55 2l-2.64 9.38c0 .11 0 .15.11.15h2c.12 0 .17 0 .2-.15.18-.73.36-1.45.54-2.17 0-.11.06-.16.19-.16h2.76c.11 0 .15 0 .18.15.18.73.37 1.46.55 2.19 0 .11.07.15.18.15h2c.11 0 .14 0 .11-.14M88.22 11.25h-1.81c-.09 0-.16 0-.12-.13l1-3.88s0-.06.06-.08l.57 2.24c.14.57.28 1.13.43 1.7 0 .14 0 .15-.13.15m3.52 4.12L88.56 4.09c0-.12-.08-.16-.21-.16h-2c-.19 0-.25.07-.3.23-.37 1.35-.75 2.7-1.13 4l-2 7.2c0 .12 0 .17.12.17h2c.11 0 .16 0 .18-.15.18-.73.37-1.46.54-2.19 0-.11.07-.14.19-.14h2.75c.11 0 .16 0 .19.14.18.73.37 1.46.55 2.19 0 .12.08.15.2.15h2c.17 0 .17-.05.13-.18M80.75 8.82a1.24 1.24 0 0 1-1.11.74h-1.77c-.13 0-.1-.07-.1-.15V7.65 5.91c0-.14 0-.17.17-.17h1.46a1.36 1.36 0 0 1 1.48 1.09 2.63 2.63 0 0 1-.13 2m2.51-1.48a3.42 3.42 0 0 0-3.54-3.42h-4.07c-.17 0-.18.05-.18.2v11.25c0 .16 0 .19.19.19h1.9c.16 0 .21 0 .21-.2v-3.81c0-.14 0-.17.17-.17a20.75 20.75 0 0 0 2.28 0 3.31 3.31 0 0 0 2.54-1.59 4 4 0 0 0 .52-2.4" fill="#da581f"/></svg>
